<svg aria-hidden="true" style="position: absolute; width: 0; height: 0; overflow: hidden;" version="1.1" xmlns="http://www.w3.org/2000/svg" xmlns:xlink="http://www.w3.org/1999/xlink">
    <defs>
        <symbol id="icon-kinezo" viewBox="0 0 32 32">
            <path d="M31.969 21.741c-0.278-0.256-0.592-0.308-0.941-0.157-0.243 0.222-0.462 0.462-0.659 0.722-0.48-1.793-0.94-3.591-1.38-5.396-0.12-0.392-0.381-0.632-0.784-0.722-1.26-0.284-2.515-0.587-3.765-0.91 0.974-1.549 2.009-3.055 3.106-4.518 0.075-0.269 0.002-0.489-0.22-0.659 0.397-0.261 0.627-0.627 0.69-1.098-0.084-0.492-0.335-0.879-0.753-1.161-0.318-0.152-0.653-0.194-1.004-0.125-0.259 0.123-0.51 0.259-0.753 0.408-0.453-0.295-0.84-0.233-1.161 0.188 0.002 0.23-0.071 0.428-0.22 0.596-0.418 0.245-0.847 0.465-1.286 0.659-1.374-0.395-2.743-0.803-4.11-1.224-0.603-0.105-1.168-0.011-1.694 0.282-0.439-0.908-1.025-1.713-1.757-2.416-0.588-0.353-1.215-0.437-1.882-0.251-1.185 0.514-1.655 1.403-1.412 2.667 0.496 0.927 1.154 1.722 1.976 2.384-0.409 0.453-0.618 0.986-0.627 1.6 0.312 2.732 0.646 5.462 1.004 8.188-0.034 0.129-0.108 0.234-0.22 0.314-0.444-0.096-0.894-0.148-1.349-0.157-0.462 0.294-0.483 0.608-0.063 0.941 0.373 0.079 0.75 0.131 1.129 0.157 0 0.502 0 1.004 0 1.506-1.859-0.199-3.721-0.355-5.584-0.471-0.31 0.27-0.331 0.563-0.063 0.878 0.727 0.122 1.459 0.216 2.196 0.282 0 0.335 0 0.669 0 1.004-1.192 0-2.384 0-3.576 0 0.040-0.756-0.252-1.341-0.878-1.757 0.213-0.279 0.338-0.593 0.376-0.941 0.325 0.014 0.638-0.038 0.941-0.157 0.46-0.314 0.92-0.627 1.38-0.941 0.836 0.073 1.672 0.136 2.51 0.188 0.063-0.052 0.126-0.105 0.188-0.157 0.145-0.344 0.062-0.605-0.251-0.784-0.752-0.104-1.505-0.199-2.259-0.282-0.192 0.007-0.381 0.038-0.565 0.094-0.472 0.246-0.911 0.539-1.318 0.878-0.191 0.126-0.4 0.178-0.627 0.157-0.187-1.013-0.794-1.588-1.82-1.726-0.711-0.042-1.422-0.042-2.133 0-0.988 0.172-1.584 0.747-1.788 1.726-0.136 0.7 0 1.338 0.408 1.914-0.485 0.265-0.819 0.652-1.004 1.161 0 0.397 0 0.795 0 1.192 0.114 0.166 0.26 0.302 0.439 0.408 10.523 0.052 21.043 0.042 31.561-0.031 0-1.485 0-2.97 0-4.455zM13.773 6.871c0.311-0.034 0.603 0.018 0.878 0.157 0.524 0.544 0.973 1.14 1.349 1.788 0.057 0.248 0.015 0.478-0.126 0.69-0.321 0.269-0.666 0.499-1.035 0.69-0.39-0.044-0.693-0.232-0.91-0.565-0.365-0.438-0.7-0.898-1.004-1.38-0.070-0.321-0.007-0.614 0.188-0.878 0.213-0.183 0.433-0.35 0.659-0.502zM26.51 8.69c0.206 0.048 0.374 0.163 0.502 0.345-0.114 0.109-0.24 0.204-0.376 0.282-0.156-0.124-0.302-0.26-0.439-0.408 0.131-0.044 0.235-0.117 0.314-0.22zM17.851 9.318c0.252-0.010 0.503 0 0.753 0.031 0.607 0.188 1.213 0.376 1.82 0.565 0.058 0.024 0.1 0.066 0.125 0.126-0.067 0.217-0.151 0.426-0.251 0.627-0.328-0.071-0.663-0.092-1.004-0.063-0.452 0.27-0.546 0.636-0.282 1.098 0.587 0.744 1.162 1.497 1.726 2.259-0.859 0.911-1.706 1.831-2.541 2.761-0.565-0.878-1.129-1.757-1.694-2.635-0.335-0.251-0.669-0.251-1.004 0-0.117 0.17-0.17 0.358-0.157 0.565 0.050 0.292 0.060 0.585 0.031 0.878-0.209 0.097-0.429 0.159-0.659 0.188-0.123-1.035-0.248-2.070-0.376-3.106 0.036-0.511 0.266-0.908 0.69-1.192 0.323-0.277 0.679-0.507 1.067-0.69 0.528-0.546 1.113-1.016 1.757-1.412zM25.255 9.443c0.419 0.357 0.796 0.754 1.129 1.192-0.127 0.137-0.242 0.284-0.345 0.439-0.251-0.251-0.502-0.502-0.753-0.753-0.031-0.292-0.042-0.585-0.031-0.878zM24.188 10.008c0.070 0.1 0.060 0.204-0.031 0.314-0.389 0.368-0.755 0.755-1.098 1.161-0.105 0.042-0.209 0.042-0.314 0-0.477-0.156-0.958-0.292-1.443-0.408 0.043-0.296 0.148-0.568 0.314-0.816 0.483 0.215 0.985 0.33 1.506 0.345 0.366-0.19 0.722-0.389 1.067-0.596zM24.69 11.2c0.259 0.228 0.51 0.468 0.753 0.722-2.633 3.979-5.257 7.963-7.875 11.953-0.098 0.039-0.203 0.060-0.314 0.063-0.805-0.090-1.61-0.174-2.416-0.251-0.010-0.628 0-1.255 0.031-1.882 3.286-3.526 6.559-7.061 9.82-10.604zM20.486 11.89c0.579 0.119 1.144 0.286 1.694 0.502-0.241 0.272-0.481 0.544-0.722 0.816-0.325-0.441-0.649-0.88-0.973-1.318zM16.471 15.969c0.341 0.503 0.676 1.015 1.004 1.537-0.283 0.264-0.545 0.547-0.784 0.847-0.087-0.794-0.16-1.589-0.22-2.384zM23.812 16.22c1.403 0.306 2.804 0.619 4.204 0.941 0.533 2.152 1.056 4.306 1.569 6.463-0.418 0-0.837 0-1.255 0-0.543-1.608-1.139-3.198-1.788-4.769-0.142-0.121-0.299-0.215-0.471-0.282-0.641-0.151-1.289-0.213-1.945-0.188-0.335 0.293-0.335 0.586 0 0.878 0.52 0.101 1.043 0.185 1.569 0.251 0.414 0.995 0.811 1.999 1.192 3.012-1.502-0.158-3.008-0.325-4.518-0.502-0.051-0.019-0.093-0.051-0.125-0.094 0.207-1.399 0.406-2.8 0.596-4.204 0.338-0.495 0.662-0.997 0.973-1.506zM15.278 16.596c0.084 0 0.167 0 0.251 0 0.084 0.94 0.136 1.882 0.157 2.824-0.17 0.149-0.316 0.316-0.439 0.502-0.151-1.065-0.287-2.132-0.408-3.2 0.166 0.006 0.313-0.036 0.439-0.125zM21.49 19.733c0.034 0.004 0.055 0.025 0.063 0.063-0.105 0.669-0.209 1.339-0.314 2.008-0.355 0.057-0.711 0.047-1.067-0.031 0.432-0.687 0.871-1.367 1.318-2.039zM2.478 20.8c0.649-0.010 1.297 0 1.945 0.031 0.838 0.286 1.121 0.861 0.847 1.726-0.151 0.426-0.454 0.667-0.91 0.722-0.627 0.042-1.255 0.042-1.882 0-0.484-0.087-0.788-0.369-0.91-0.847-0.164-0.824 0.139-1.368 0.91-1.631zM19.482 22.745c2.598 0.251 5.192 0.544 7.78 0.878 0.27 0.518 0.333 1.062 0.188 1.631-2.405 0.010-4.811 0-7.216-0.031-0.233-0.777-0.756-1.175-1.569-1.192 0.297-0.416 0.569-0.845 0.816-1.286zM31.090 22.996c0.072 0.449 0.083 0.909 0.031 1.38-0.207-0.207-0.364-0.448-0.471-0.722 0.135-0.229 0.281-0.448 0.439-0.659zM1.537 24.314c1.234-0.010 2.468 0 3.702 0.031 0.403 0.168 0.591 0.471 0.565 0.91-1.632 0.021-3.263 0-4.894-0.063 0.043-0.419 0.253-0.712 0.627-0.878zM11.388 24.314c2.462 0.282 4.93 0.543 7.404 0.784 0.118 0.014 0.223 0.055 0.314 0.125-2.572 0.031-5.145 0.042-7.718 0.031 0-0.314 0-0.627 0-0.941zM28.455 24.627c0.523-0.010 1.046 0 1.569 0.031 0.167 0.188 0.335 0.376 0.502 0.565-0.69 0.031-1.38 0.042-2.071 0.031 0-0.209 0-0.418 0-0.627z"></path>
        </symbol>
        <symbol id="icon-manual" viewBox="0 0 32 32">
            <path fill="#000" style="fill: var(--color1, #000)" opacity="0.899" d="M-0.031 15.406c0-0.042 0-0.083 0-0.125 1.427-2.959 3-5.834 4.719-8.625 0.288-0.434 0.601-0.851 0.938-1.25 0.402-0.404 0.87-0.706 1.406-0.906 1.291-0.292 2.583-0.583 3.875-0.875 0.709-0.213 1.323-0.578 1.844-1.094 0.031-0.771 0.042-1.541 0.031-2.313 0.208 0 0.417 0 0.625 0 0.020 0.92-0.001 1.836-0.063 2.75-0.851 0.79-1.851 1.3-3 1.531-0.942 0.167-1.879 0.355-2.813 0.563-0.379 0.116-0.733 0.283-1.063 0.5-0.303 0.305-0.585 0.628-0.844 0.969-1.842 2.91-3.509 5.931-5 9.063-0.026 0.029-0.057 0.049-0.094 0.063-0.181-0.101-0.369-0.185-0.563-0.25z"></path>
            <path fill="#000" style="fill: var(--color1, #000)" opacity="0.899" d="M18.531 0.219c0.208 0 0.417 0 0.625 0-0.010 0.771 0 1.542 0.031 2.313 0.286 0.331 0.629 0.549 1.031 0.656 0.389-0.268 0.806-0.486 1.25-0.656 1.625 0.469 3.166 1.125 4.625 1.969 0.356 0.22 0.689 0.47 1 0.75 1.537 0.294 3.078 0.555 4.625 0.781-0.014 0.23-0.035 0.459-0.063 0.688-1.607-0.24-3.211-0.5-4.813-0.781-0.86-0.732-1.818-1.316-2.875-1.75-0.799-0.337-1.612-0.639-2.438-0.906-0.090 0.014-0.173 0.045-0.25 0.094 0.789 0.391 1.581 0.777 2.375 1.156-0.099 0.218-0.213 0.427-0.344 0.625-0.908-0.454-1.825-0.892-2.75-1.313-0.151 0.070-0.286 0.164-0.406 0.281 0.864 0.389 1.719 0.795 2.563 1.219-0.078 0.181-0.161 0.358-0.25 0.531-0.967-0.343-1.915-0.749-2.844-1.219-0.107 0.182-0.221 0.359-0.344 0.531 0.93 0.413 1.868 0.809 2.813 1.188 0.033 0.035 0.053 0.077 0.063 0.125-0.090 0.169-0.152 0.346-0.188 0.531-0.944-0.35-1.882-0.725-2.813-1.125-0.077 0.072-0.077 0.145 0 0.219 1.379 0.632 2.744 1.288 4.094 1.969 0.048 0.162 0.038 0.319-0.031 0.469-0.53 0.185-1.072 0.331-1.625 0.438-0.136 0.028-0.178 0.090-0.125 0.188 0.852-0.016 1.706-0.037 2.563-0.063 0.491-0.1 0.908-0.329 1.25-0.688 0.096-0.058 0.2-0.089 0.313-0.094 1.839 0.554 3.672 1.127 5.5 1.719 0.256 0.057 0.486 0.161 0.688 0.313-0.061 0.203-0.134 0.401-0.219 0.594-1.94-0.643-3.888-1.268-5.844-1.875-0.324 0.187-0.657 0.364-1 0.531-0.222 0.088-0.451 0.15-0.688 0.188-0.834 0.014-1.668 0.045-2.5 0.094-0.73-0.147-0.948-0.563-0.656-1.25 0.096-0.117 0.211-0.211 0.344-0.281 0.232-0.053 0.461-0.115 0.688-0.188-1.104-0.521-2.208-1.042-3.313-1.563-0.087-0.073-0.139-0.167-0.156-0.281-0.067-1.054 0.298-1.929 1.094-2.625-0.352-0.234-0.675-0.505-0.969-0.813-0.031-0.896-0.042-1.791-0.031-2.688z"></path>
            <path fill="#000" style="fill: var(--color1, #000)" opacity="0.911" d="M14.969 2.031c-0.103 0.051-0.176 0.134-0.219 0.25-0.991 2.691-1.199 5.441-0.625 8.25 0.588 2.306 1.151 4.619 1.688 6.938 0.678 3.854 0.418 7.645-0.781 11.375 0.048 0.163 0.152 0.277 0.313 0.344 0.615 0.177 1.229 0.354 1.844 0.531 0.134-0.009 0.239-0.071 0.313-0.188 1.438-4.487 1.646-9.029 0.625-13.625-0.458-1.792-0.917-3.583-1.375-5.375-0.592-2.55-0.436-5.050 0.469-7.5-0.050-0.165-0.154-0.279-0.313-0.344-0.636-0.256-1.281-0.474-1.938-0.656zM15.281 2.844c0.383 0.138 0.758 0.294 1.125 0.469-0.14 0.39-0.286 0.775-0.438 1.156-0.352-0.142-0.706-0.277-1.063-0.406 0.13-0.404 0.255-0.81 0.375-1.219zM14.781 4.781c0.376 0.129 0.751 0.264 1.125 0.406-0.126 0.521-0.189 1.052-0.188 1.594-0.396 0-0.792 0-1.188 0 0.012-0.678 0.095-1.345 0.25-2zM14.531 7.406c0.375 0 0.75 0 1.125 0 0.055 0.603 0.096 1.207 0.125 1.813-0.369 0.072-0.733 0.155-1.094 0.25-0.129-0.68-0.181-1.368-0.156-2.063zM15.719 9.906c0.083-0.011 0.156 0.010 0.219 0.063 0.101 0.604 0.237 1.197 0.406 1.781-0.391 0.101-0.787 0.174-1.188 0.219-0.165-0.597-0.28-1.202-0.344-1.813 0.309-0.080 0.611-0.163 0.906-0.25zM16.469 12.406c0.164 0.487 0.31 0.987 0.438 1.5-0.336 0.215-0.68 0.424-1.031 0.625-0.187-0.601-0.364-1.205-0.531-1.813 0.378-0.121 0.753-0.225 1.125-0.313zM17.031 14.656c0.249 0.694 0.437 1.413 0.563 2.156-0.016 0.083-0.058 0.145-0.125 0.188-0.33 0.093-0.663 0.166-1 0.219-0.116-0.652-0.262-1.298-0.438-1.938 0.335-0.209 0.668-0.417 1-0.625zM17.594 17.656c0.063 0 0.125 0 0.188 0 0.071 0.66 0.154 1.317 0.25 1.969-0.416 0.031-0.833 0.042-1.25 0.031-0.021-0.588-0.084-1.172-0.188-1.75 0.35-0.046 0.683-0.129 1-0.25zM16.844 20.281c0.396 0 0.792 0 1.188 0 0.056 0.602 0.077 1.206 0.063 1.813-0.394-0.043-0.79-0.064-1.188-0.063 0.004-0.584-0.017-1.168-0.063-1.75zM16.844 22.719c0.397-0.002 0.793 0.019 1.188 0.063-0.019 0.523-0.061 1.044-0.125 1.563-0.403-0.085-0.799-0.2-1.188-0.344 0.081-0.42 0.122-0.848 0.125-1.281zM16.656 24.719c0.367 0.129 0.742 0.233 1.125 0.313-0.044 0.575-0.148 1.137-0.313 1.688-0.344-0.142-0.698-0.247-1.063-0.313 0.076-0.563 0.16-1.126 0.25-1.688zM16.219 27.031c0.362 0.131 0.727 0.256 1.094 0.375-0.064 0.463-0.168 0.921-0.313 1.375-0.024 0.058-0.066 0.1-0.125 0.125-0.339-0.092-0.672-0.196-1-0.313 0.104-0.519 0.218-1.040 0.344-1.563z"></path>
            <path fill="#000" style="fill: var(--color1, #000)" opacity="0.879" d="M31.969 15.281c0 0.042 0 0.083 0 0.125-0.194 0.065-0.381 0.149-0.563 0.25-0.799-1.503-1.59-3.014-2.375-4.531 0.209-0.163 0.427-0.257 0.656-0.281 0.762 1.483 1.523 2.962 2.281 4.438z"></path>
            <path fill="#000" style="fill: var(--color1, #000)" opacity="0.888" d="M7.156 11.469c0.285-0.070 0.462 0.034 0.531 0.313 0.796 2.438 1.369 4.928 1.719 7.469-0.025 0.059-0.067 0.101-0.125 0.125-0.186 0.031-0.374 0.042-0.563 0.031-0.313-2.335-0.823-4.627-1.531-6.875-2.151 2.907-4.318 5.803-6.5 8.688-0.071 0.107-0.165 0.138-0.281 0.094-0.156-0.098-0.281-0.223-0.375-0.375 2.353-3.176 4.728-6.332 7.125-9.469z"></path>
            <path fill="#000" style="fill: var(--color1, #000)" opacity="0.894" d="M24.406 11.469c0.296-0.055 0.515 0.049 0.656 0.313 2.304 3.036 4.586 6.088 6.844 9.156-0.094 0.152-0.219 0.277-0.375 0.375-0.117 0.044-0.21 0.013-0.281-0.094-2.182-2.885-4.349-5.78-6.5-8.688-0.768 2.385-1.289 4.822-1.563 7.313-0.083 2.448 0.042 4.885 0.375 7.313 0.178 1.483 0.375 2.962 0.594 4.438-0.228 0.028-0.458 0.049-0.688 0.063-0.394-2.53-0.696-5.072-0.906-7.625-0.292-2.85-0.083-5.663 0.625-8.438 0.325-1.403 0.732-2.778 1.219-4.125z"></path>
            <path fill="#000" style="fill: var(--color1, #000)" opacity="0.89" d="M11.156 19.719c0.987-0.015 1.83 0.318 2.531 1 0.061 0.111 0.113 0.225 0.156 0.344-0.405 1.152-0.821 2.297-1.25 3.438 0.228-0.082 0.457-0.186 0.688-0.313 0.772-0.082 1.095 0.262 0.969 1.031-0.649 0.733-1.347 1.431-2.094 2.094-0.512 0.275-1.054 0.462-1.625 0.563-0.68 1.265-1.367 2.526-2.063 3.781-0.054 0.068-0.117 0.078-0.188 0.031-0.185-0.060-0.331-0.164-0.438-0.313 0.739-1.415 1.509-2.811 2.313-4.188 0.557-0.020 1.078-0.166 1.563-0.438 0.5-0.417 0.958-0.875 1.375-1.375 0.156-0.115 0.313-0.229 0.469-0.344 0.035-0.077 0.014-0.139-0.063-0.188-0.464 0.289-0.932 0.57-1.406 0.844-0.438 0.083-0.594-0.094-0.469-0.531 0.49-1.345 0.979-2.689 1.469-4.031-0.052-0.052-0.104-0.104-0.156-0.156-0.371 0.937-0.736 1.875-1.094 2.813-0.247-0.034-0.476-0.117-0.688-0.25 0.378-0.977 0.774-1.946 1.188-2.906-0.213-0.119-0.432-0.15-0.656-0.094-0.354 0.917-0.708 1.833-1.063 2.75-0.026 0.029-0.057 0.049-0.094 0.063-0.183-0.081-0.37-0.144-0.563-0.188 0.331-0.92 0.654-1.836 0.969-2.75-0.155 0.039-0.311 0.080-0.469 0.125-0.351 0.991-0.726 1.97-1.125 2.938-0.176-0.1-0.363-0.163-0.563-0.188 0.235-0.863 0.527-1.706 0.875-2.531-0.104-0.017-0.198 0.015-0.281 0.094-0.722 1.354-1.284 2.77-1.688 4.25-0.092 0.454-0.154 0.913-0.188 1.375-1.252 1.741-2.491 3.491-3.719 5.25-0.233-0.028-0.442-0.143-0.625-0.344 1.175-1.694 2.373-3.371 3.594-5.031 0.347-2.146 1.056-4.166 2.125-6.063 0.735-0.322 1.495-0.509 2.281-0.563z"></path>
        </symbol>
        <symbol id="icon-masaj" viewBox="0 0 30 30">
            <path fill="#000" style="fill: var(--color1, #000)" opacity="0.938" d="M31.969 19.594c-0.323-0.704-0.886-1.027-1.688-0.969-1.016-1.685-2.516-2.55-4.5-2.594 0.029-2.128-0.002-4.253-0.094-6.375-0.278-1.131-0.913-1.996-1.906-2.594 0.511-0.448 0.854-1 1.031-1.656 0.276-1.688-0.339-2.928-1.844-3.719-1.736-0.574-3.101-0.105-4.094 1.406-0.679 1.493-0.44 2.815 0.719 3.969-0.476 0.285-0.882 0.65-1.219 1.094-1.063 1.813-2.125 3.625-3.188 5.438-0.584 0.418-1.167 0.834-1.75 1.25-0.851-0.108-1.705-0.191-2.563-0.25-0.435 0.010-0.863 0.073-1.281 0.188-0.044-0.581-0.242-1.102-0.594-1.563-1.138-1.219-2.461-1.459-3.969-0.719-1.424 1.066-1.779 2.42-1.063 4.063-0.646 0.021-1.292 0.042-1.938 0.063-1.030 0.322-1.426 1.009-1.188 2.063-0.427 0.179-0.718 0.482-0.875 0.906 0 1.542 0 3.083 0 4.625 0.222 0.523 0.618 0.825 1.188 0.906 9.875 0.042 19.75 0.042 29.625 0 0.57-0.081 0.966-0.383 1.188-0.906 0-1.542 0-3.083 0-4.625zM21.219 2.469c1.041-0.12 1.843 0.255 2.406 1.125 0.491 1.11 0.272 2.058-0.656 2.844-1.243 0.687-2.295 0.468-3.156-0.656-0.566-1.164-0.347-2.154 0.656-2.969 0.249-0.135 0.499-0.25 0.75-0.344zM20.531 7.719c0.709 0.157 1.417 0.157 2.125 0 0.338 0.075 0.63 0.231 0.875 0.469-0.385 1.281-0.771 2.563-1.156 3.844-1.138 1.115-2.295 2.209-3.469 3.281-0.102 0.031-0.206 0.041-0.313 0.031-0.028-1.836 0.003-3.669 0.094-5.5 0.282-1.005 0.897-1.713 1.844-2.125zM24.344 9.031c0.343 0.549 0.489 1.153 0.438 1.813-0.040 0.819-0.217 1.611-0.531 2.375-1.347 1.303-2.711 2.584-4.094 3.844-0.667 0.083-0.907-0.198-0.719-0.844 1.29-1.185 2.561-2.394 3.813-3.625 0.355-1.193 0.72-2.38 1.094-3.563zM17.531 11.531c0.073 0.76 0.083 1.531 0.031 2.313-0.224 0.344-0.432 0.698-0.625 1.063-0.067 0.13-0.171 0.213-0.313 0.25-0.514-0.058-1.025-0.131-1.531-0.219 0.308-0.232 0.61-0.472 0.906-0.719 0.544-0.879 1.054-1.775 1.531-2.688zM6.219 13.094c1.48-0.051 2.282 0.657 2.406 2.125-0.827 1.117-1.941 1.565-3.344 1.344-0.893-0.957-0.914-1.936-0.063-2.938 0.298-0.255 0.631-0.432 1-0.531zM24.719 14.156c0.062 0.572 0.083 1.155 0.063 1.75-0.565-0.024-1.127-0.076-1.688-0.156 0.558-0.518 1.1-1.049 1.625-1.594zM10.469 15.594c1.67 0.108 3.337 0.254 5 0.438 0 0.875 0 1.75 0 2.625-3.167-0.010-6.333 0-9.5 0.031-0.468 0.288-0.489 0.6-0.063 0.938 8.292 0.021 16.583 0.042 24.875 0.063 0.124 0.082 0.197 0.197 0.219 0.344 0.042 1.25 0.042 2.5 0 3.75-0.025 0.171-0.119 0.285-0.281 0.344-9.88 0.062-19.755 0.041-29.625-0.063-0.087-0.073-0.139-0.167-0.156-0.281-0.060-1.317-0.039-2.629 0.063-3.938 0.052-0.052 0.104-0.104 0.156-0.156 1.104-0.021 2.208-0.042 3.313-0.063 0.236-0.182 0.309-0.422 0.219-0.719-0.076-0.097-0.17-0.17-0.281-0.219-0.813-0.021-1.625-0.042-2.438-0.063-0.262-0.33-0.242-0.643 0.063-0.938 1.663-0.065 3.33-0.127 5-0.188 0.919-0.241 1.69-0.72 2.313-1.438 0.359-0.211 0.734-0.367 1.125-0.469zM16.469 16.156c0.625 0.042 1.25 0.083 1.875 0.125-0.013 1.352 0.654 1.945 2 1.781 0.153-0.045 0.299-0.108 0.438-0.188 0.449-0.418 0.907-0.824 1.375-1.219 1.477 0.164 2.956 0.321 4.438 0.469 0.988 0.202 1.8 0.692 2.438 1.469-4.187 0.063-8.375 0.083-12.563 0.063 0-0.833 0-1.667 0-2.5z"></path>
            <path fill="#000" style="fill: var(--color1, #000)" opacity="0.93" d="M2.594 26.031c0.251-0.038 0.47 0.025 0.656 0.188 0.079 1.039 0.12 2.081 0.125 3.125 0.257 0.193 0.466 0.152 0.625-0.125 0.021-0.979 0.042-1.958 0.063-2.938 0.096-0.189 0.252-0.272 0.469-0.25 0.177-0.024 0.312 0.039 0.406 0.188 0.101 1.017 0.122 2.038 0.063 3.063-0.214 0.957-0.808 1.342-1.781 1.156-0.406-0.156-0.688-0.438-0.844-0.844-0.042-1.125-0.042-2.25 0-3.375 0.072-0.071 0.144-0.134 0.219-0.188z"></path>
            <path fill="#000" style="fill: var(--color1, #000)" opacity="0.929" d="M27.156 26.031c0.168-0.010 0.335 0 0.5 0.031 0.115 0.031 0.188 0.104 0.219 0.219 0.021 0.979 0.042 1.958 0.063 2.938 0.159 0.277 0.368 0.318 0.625 0.125 0.004-1.045 0.045-2.087 0.125-3.125 0.237-0.206 0.498-0.238 0.781-0.094 0.039 0.047 0.070 0.099 0.094 0.156 0.042 1.104 0.042 2.208 0 3.313-0.472 0.911-1.17 1.13-2.094 0.656-0.225-0.169-0.381-0.388-0.469-0.656-0.1-1.060-0.12-2.122-0.063-3.188 0.035-0.149 0.108-0.274 0.219-0.375z"></path>
        </symbol>
        <symbol id="icon-osteopat" viewBox="0 0 32 32">
            <path d="M17.466 0.159c-0.757 0.215-1.257 0.704-1.498 1.466-0.043 1.445-0.043 2.89 0 4.335 0.185 0.87 0.621 1.582 1.307 2.135-0.892 0.489-1.785 0.977-2.677 1.466-0.89 0.614-1.453 1.454-1.689 2.518-0.043 1.275-0.043 2.55 0 3.825 0.181 0.521 0.531 0.871 1.052 1.052 0.488 0.032 0.977 0.042 1.466 0.032 0 0.51 0 1.020 0 1.53-1.912-0.011-3.825 0-5.737 0.032-0.964 0.217-1.687 0.759-2.167 1.625-0.48-0.867-1.203-1.409-2.167-1.625-0.765-0.043-1.53-0.043-2.295 0-0.899 0.211-1.59 0.71-2.072 1.498-0.594 1.245-0.477 2.425 0.351 3.538-0.319 0.021-0.637 0.043-0.956 0.064-0.117 0.032-0.191 0.106-0.223 0.223-0.043 0.85-0.043 1.7 0 2.55 0.032 0.117 0.106 0.191 0.223 0.223 0.935 0.032 1.87 0.043 2.805 0.032-0.011 1.615 0 3.23 0.032 4.845 0.032 0.117 0.106 0.191 0.223 0.223 0.68 0.043 1.36 0.043 2.040 0 0.117-0.032 0.191-0.106 0.223-0.223 0.202-1.612 0.382-3.227 0.542-4.845 3.060 0 6.12 0 9.179 0 0.011 0.574 0 1.148-0.032 1.721-0.896 0.713-1.194 1.627-0.892 2.741 0.048 0.040 0.101 0.072 0.159 0.096 3.23 0.043 6.459 0.043 9.689 0 0.058-0.024 0.112-0.056 0.159-0.096 0.301-1.114 0.004-2.028-0.892-2.741-0.032-0.573-0.042-1.147-0.032-1.721 0.681-0.021 1.361 0 2.040 0.064 0.172 1.594 0.353 3.188 0.542 4.781 0.032 0.117 0.106 0.191 0.223 0.223 0.68 0.043 1.36 0.043 2.040 0 0.117-0.032 0.191-0.106 0.223-0.223 0.032-1.615 0.043-3.23 0.032-4.845 0.935 0.011 1.87 0 2.805-0.032 0.117-0.032 0.191-0.106 0.223-0.223 0.043-2.040 0.043-4.080 0-6.12-0.024-0.058-0.056-0.112-0.096-0.159-0.567-0.103-1.141-0.124-1.721-0.064-0.332 0.081-0.63 0.23-0.892 0.446-2.316 0.032-4.632 0.043-6.948 0.032-0.011-0.68 0-1.36 0.032-2.040 0.342 0.756 0.926 1.096 1.753 1.020 0.803 0.089 1.377-0.23 1.721-0.956 1.004-0.034 2.003-0.087 2.996-0.159 0.040-0.048 0.072-0.101 0.096-0.159 0.011-0.765 0.021-1.53 0.032-2.295 0.009-0.813-0.022-1.621-0.096-2.422-0.048-0.040-0.101-0.072-0.159-0.096-0.574-0.043-1.147-0.043-1.721 0-0.204 0.054-0.384 0.15-0.542 0.287 0.219-1.747-0.365-3.139-1.753-4.175-0.892-0.489-1.785-0.977-2.677-1.466 0.687-0.556 1.123-1.268 1.307-2.135 0.043-1.232 0.043-2.465 0-3.697-0.176-0.526-0.526-0.866-1.052-1.020-0.154-0.526-0.494-0.876-1.020-1.052-1.168-0.032-2.337-0.043-3.506-0.032zM17.912 1.179c0.871-0.011 1.743 0 2.614 0.032 0.111 0.030 0.218 0.073 0.319 0.127 0.12 0.234 0.215 0.479 0.287 0.733 0.241 0.1 0.485 0.196 0.733 0.287 0.040 0.048 0.072 0.101 0.096 0.159 0.1 0.526 0.121 1.057 0.064 1.594-0.573-0.262-0.944-0.698-1.116-1.307-0.255-0.127-0.51-0.127-0.765 0-0.443 0.719-1.081 1.165-1.912 1.339-0.422 0.067-0.847 0.099-1.275 0.096-0.025-0.79 0.007-1.576 0.096-2.359 0.167-0.391 0.454-0.624 0.861-0.701zM20.335 4.239c0.283 0.208 0.559 0.431 0.829 0.669 0.253 0.166 0.53 0.261 0.829 0.287-0.005 1.121-0.515 1.917-1.53 2.39-1.478 0.445-2.572-0.012-3.283-1.371-0.121-0.308-0.174-0.626-0.159-0.956 0.974 0.117 1.888-0.063 2.741-0.542 0.219-0.13 0.411-0.29 0.574-0.478zM18.677 8.765c0.557 0.061 1.11 0.082 1.657 0.064-0.385 0.474-0.852 0.57-1.402 0.287-0.125-0.092-0.21-0.209-0.255-0.351zM17.53 9.147c0.712 1.162 1.711 1.491 2.996 0.988 0.387-0.252 0.695-0.581 0.924-0.988 0.855 0.507 1.716 1.007 2.582 1.498 0.667 0.58 1.018 1.313 1.052 2.199 0.032 0.531 0.042 1.062 0.032 1.594-0.51 0-1.020 0-1.53 0 0-0.85 0-1.7 0-2.55-0.34 0-0.68 0-1.020 0 0 0.85 0 1.7 0 2.55-0.893 0.011-1.785 0-2.677-0.032-0.247-0.481-0.63-0.8-1.147-0.956-0.765-0.032-1.53-0.043-2.295-0.032 0-0.51 0-1.020 0-1.53-0.34 0-0.68 0-1.020 0 0 0.51 0 1.020 0 1.53-0.17 0-0.34 0-0.51 0 0 0.34 0 0.68 0 1.020 0.68 0 1.36 0 2.040 0 0 0.51 0 1.020 0 1.53-0.85 0.011-1.7 0-2.55-0.032-0.287-0.032-0.446-0.191-0.478-0.478-0.043-0.871-0.043-1.742 0-2.614 0.044-1.077 0.522-1.895 1.434-2.454 0.737-0.4 1.459-0.814 2.167-1.243zM17.976 14.438c0.771 0.036 1.058 0.419 0.861 1.147-0.223 0.266-0.51 0.393-0.861 0.382 0-0.51 0-1.020 0-1.53zM27.155 14.438c0.17 0 0.34 0 0.51 0 0 1.020 0 2.040 0 3.060-0.34 0-0.68 0-1.020 0-0.011-0.85 0-1.7 0.032-2.55 0.043-0.288 0.203-0.457 0.478-0.51zM20.016 15.458c1.87 0 3.74 0 5.61 0 0.011 0.68 0 1.36-0.032 2.040-0.329-0.775-0.913-1.115-1.753-1.020-0.807-0.096-1.381 0.223-1.721 0.956-0.341 0.030-0.67 0.093-0.988 0.191-0.105 1.227-0.126 2.459-0.064 3.697 0.032 0.117 0.106 0.191 0.223 0.223 2.465 0.032 4.93 0.043 7.394 0.032 0 0.68 0 1.36 0 2.040-2.423 0.021-4.845 0-7.267-0.064 0.364-1.173-0.018-1.991-1.147-2.454-0.424-0.032-0.849-0.042-1.275-0.032-0.011-1.403 0-2.805 0.032-4.207 0.565-0.301 0.894-0.769 0.988-1.402zM16.446 16.988c0.51 0 1.020 0 1.53 0 0 0.51 0 1.020 0 1.53-0.51 0-1.020 0-1.53 0 0-0.51 0-1.020 0-1.53zM23.586 17.498c0.292-0.025 0.568 0.029 0.829 0.159 0.252 0.568 0.061 0.854-0.574 0.861-0.634-0.006-0.826-0.293-0.574-0.861 0.116-0.048 0.222-0.101 0.319-0.159zM3.697 19.538c0.492-0.013 0.98 0.019 1.466 0.096 1.168 0.369 1.667 1.166 1.498 2.39-0.051 0.175-0.115 0.345-0.191 0.51-0.457-0.457-0.914-0.914-1.371-1.371-0.46-0.091-0.928-0.123-1.402-0.096 0-0.51 0-1.020 0-1.53zM10.327 19.538c2.55 0 5.1 0 7.649 0 0 0.51 0 1.020 0 1.53-2.55 0-5.1 0-7.649 0 0 0.34 0 0.68 0 1.020 2.72 0 5.44 0 8.159 0 0 0.51 0 1.020 0 1.53-2.72 0.011-5.44 0-8.159-0.032-1.446-0.183-2.095-1.001-1.944-2.454 0.288-0.977 0.936-1.508 1.944-1.594zM2.55 19.92c0.099 0.662 0.173 1.342 0.223 2.040 0.048 0.040 0.101 0.072 0.159 0.096 0.51 0.021 1.020 0.043 1.53 0.064 0.404 0.404 0.807 0.807 1.211 1.211-0.876 0.328-1.769 0.371-2.677 0.128-1.264-0.667-1.594-1.655-0.988-2.964 0.151-0.225 0.331-0.416 0.542-0.574zM30.406 21.068c0.106 0 0.212 0 0.319 0 0 0.85 0 1.7 0 2.55-0.34 0-0.68 0-1.020 0-0.021-0.766 0-1.531 0.064-2.295 0.203-0.124 0.416-0.209 0.637-0.255zM19.506 22.088c0.771 0.036 1.058 0.419 0.861 1.147-0.223 0.266-0.51 0.393-0.861 0.382 0-0.51 0-1.020 0-1.53zM7.458 22.98c0.19 0.175 0.36 0.377 0.51 0.606-0.298 0.043-0.595 0.043-0.892 0 0.169-0.179 0.296-0.38 0.382-0.606zM1.147 24.637c9.859 0 19.718 0 29.578 0 0 0.34 0 0.68 0 1.020-9.859 0-19.718 0-29.578 0 0-0.34 0-0.68 0-1.020zM4.207 26.677c0.322-0.021 0.64 0 0.956 0.064-0.155 1.293-0.293 2.589-0.414 3.888-0.157 0.116-0.337 0.159-0.542 0.128 0-1.36 0-2.72 0-4.080zM16.446 26.677c0.85 0 1.7 0 2.55 0 0 0.51 0 1.020 0 1.53-0.85 0-1.7 0-2.55 0 0-0.51 0-1.020 0-1.53zM20.016 26.677c0.85 0 1.7 0 2.55 0 0 0.51 0 1.020 0 1.53-0.85 0-1.7 0-2.55 0 0-0.51 0-1.020 0-1.53zM26.709 26.741c0.306-0.063 0.625-0.084 0.956-0.064 0 1.36 0 2.72 0 4.080-0.17 0-0.34 0-0.51 0-0.137-1.349-0.286-2.687-0.446-4.016zM16.128 29.227c0.956 0 1.912 0 2.869 0 0 0.34 0 0.68 0 1.020-1.169 0-2.337 0-3.506 0 0.051-0.442 0.263-0.782 0.637-1.020zM20.016 29.227c0.956-0.011 1.913 0 2.869 0.032 0.382 0.223 0.595 0.552 0.637 0.988-1.169 0-2.337 0-3.506 0 0-0.34 0-0.68 0-1.020z"></path>
        </symbol>
        <symbol id="icon-stoun" viewBox="0 0 32 32">
            <path fill="#000" style="fill: var(--color1, #000)" opacity="0.896" d="M12.362 0.177c0.778-0.063 1.531 0.043 2.261 0.318 0.197 0.153 0.256 0.353 0.177 0.6-0.092 0.105-0.21 0.152-0.353 0.141-1.621-0.584-2.986-0.231-4.097 1.060-0.463 0.738-0.628 1.539-0.494 2.402 0.126 0.376 0.22 0.753 0.283 1.13-0.255 0.375-0.514 0.375-0.777 0-0.685-1.78-0.367-3.346 0.954-4.698 0.617-0.474 1.3-0.792 2.049-0.954z"></path>
            <path fill="#000" style="fill: var(--color1, #000)" opacity="0.893" d="M15.894 1.307c2.352-0.21 4.294 0.567 5.828 2.331 0.122 0.43-0.031 0.63-0.459 0.6-0.474-0.45-0.968-0.874-1.483-1.272-2.328-1.314-4.542-1.149-6.64 0.494-1.154 1.025-1.79 2.308-1.907 3.85 0.027 1.173 0.498 2.127 1.413 2.861 0.348 0.239 0.689 0.486 1.024 0.742 0.094 0.495-0.107 0.671-0.6 0.53-2.418-1.413-3.159-3.45-2.225-6.11 1.010-2.2 2.693-3.542 5.051-4.027z"></path>
            <path fill="#000" style="fill: var(--color1, #000)" opacity="0.921" d="M2.402 2.932c1.766-0.012 3.532 0 5.298 0.035 0.248 0.215 0.271 0.451 0.071 0.706-1.839 0.004-3.676 0.051-5.51 0.141-0.523 0.17-0.888 0.512-1.095 1.024-0.116 3.199-0.14 6.401-0.071 9.607 0.128 0.599 0.469 1.035 1.024 1.307 0.894 0.078 1.789 0.137 2.684 0.177 0.185 0.226 0.185 0.45 0 0.671-0.376 0.035-0.753 0.047-1.13 0.035 0.012 5.016 0 10.031-0.035 15.046-0.291 0.218-0.526 0.171-0.706-0.141-0.035-4.968-0.047-9.937-0.035-14.905-1.378 0.012-2.238-0.647-2.578-1.978-0.047-3.249-0.047-6.499 0-9.748 0.297-1.086 0.992-1.745 2.084-1.978z"></path>
            <path fill="#000" style="fill: var(--color1, #000)" opacity="0.921" d="M23.806 2.932c1.86-0.012 3.721 0 5.581 0.035 1.105 0.21 1.799 0.858 2.084 1.943 0.047 3.249 0.047 6.499 0 9.748-0.341 1.331-1.2 1.99-2.578 1.978 0.012 4.968 0 9.937-0.035 14.905-0.18 0.313-0.416 0.36-0.706 0.141-0.035-5.015-0.047-10.031-0.035-15.046-0.378 0.012-0.754-0-1.13-0.035-0.185-0.221-0.185-0.445 0-0.671 0.895-0.040 1.79-0.099 2.684-0.177 0.555-0.272 0.896-0.708 1.024-1.307 0.069-3.206 0.046-6.408-0.071-9.607-0.207-0.513-0.572-0.854-1.095-1.024-1.928-0.090-3.859-0.138-5.793-0.141-0.204-0.279-0.18-0.526 0.071-0.742z"></path>
            <path fill="#000" style="fill: var(--color1, #000)" opacity="0.892" d="M20.415 4.203c0.19 0.031 0.343 0.125 0.459 0.283 0.474 0.63 0.663 1.337 0.565 2.119-0.106 0.46-0.212 0.919-0.318 1.377 0.009 0.159 0.045 0.312 0.106 0.459 0.165 0.283 0.33 0.565 0.494 0.848 0.14 0.498-0.013 0.874-0.459 1.13 0.087 2.375-1.019 3.328-3.32 2.861-0.548-0.239-1.090-0.498-1.625-0.777-0.188-0.542 0.001-0.754 0.565-0.636 0.364 0.17 0.718 0.359 1.060 0.565 0.53 0.167 1.072 0.214 1.625 0.141 0.467-0.215 0.738-0.58 0.812-1.095 0.027-0.473 0.027-0.943 0-1.413 0.168-0.196 0.369-0.349 0.6-0.459-0.231-0.348-0.431-0.713-0.6-1.095-0.047-0.33-0.047-0.659 0-0.989 0.123-0.41 0.229-0.822 0.318-1.236-0.035-0.361-0.141-0.702-0.318-1.024-0.379 0.272-0.78 0.508-1.201 0.706-0.102 1.017-0.514 1.876-1.236 2.578-0.673 0.26-1.297 0.601-1.872 1.024-0.073 0.167-0.108 0.344-0.106 0.53 0.046 0.294 0.057 0.589 0.035 0.883-0.235 0.283-0.471 0.283-0.706 0-0.343-0.853-0.19-1.595 0.459-2.225 0.558-0.361 1.146-0.667 1.766-0.918 0.286-0.263 0.486-0.581 0.6-0.954 0.118-0.449 0.236-0.896 0.353-1.342 0.406-0.315 0.842-0.586 1.307-0.812 0.186-0.222 0.398-0.399 0.636-0.53z"></path>
            <path fill="#000" style="fill: var(--color1, #000)" opacity="0.896" d="M4.662 6.322c1.347 0.13 2.689 0.307 4.027 0.53 0.297 0.012 0.568 0.095 0.812 0.247 0.132 0.367 0.014 0.579-0.353 0.636-1.367-0.205-2.733-0.417-4.097-0.636-1.226 0.166-1.897 0.861-2.013 2.084-0.013 0.309 0.046 0.603 0.177 0.883 1.884 2.496 3.767 4.992 5.651 7.488 0.942 1.434 1.46 3.012 1.554 4.733 0.089 2.283 0.124 4.567 0.106 6.852 3.628-0.75 7.254-0.75 10.879 0 0.066-2.143 0.125-4.285 0.177-6.428 0.018-1.912 0.56-3.654 1.625-5.227 1.86-2.355 3.72-4.709 5.581-7.064 0.662-1.335 0.32-2.335-1.024-3.002-0.196-0.061-0.396-0.096-0.6-0.106-1.486 0.146-2.97 0.311-4.45 0.494-0.355-0.078-0.473-0.29-0.353-0.636 0.064-0.085 0.146-0.144 0.247-0.177 1.691-0.216 3.386-0.357 5.086-0.424 1.129 0.234 1.847 0.905 2.155 2.013 0.208 0.937 0.020 1.785-0.565 2.543-1.79 2.261-3.579 4.521-5.369 6.781-1.013 1.461-1.531 3.086-1.554 4.874-0.034 2.899-0.058 5.795-0.071 8.689-0.18 0.313-0.416 0.36-0.706 0.141-0.101-0.557-0.137-1.122-0.106-1.695-3.649-0.751-7.299-0.751-10.949 0 0.012 0.542 0 1.084-0.035 1.625-0.054 0.17-0.171 0.241-0.353 0.212-0.144 0.010-0.261-0.037-0.353-0.141-0.025-3.014-0.072-6.028-0.141-9.042-0.070-1.671-0.565-3.202-1.483-4.592-1.79-2.355-3.579-4.709-5.369-7.064-0.858-1.364-0.752-2.647 0.318-3.85 0.46-0.383 0.978-0.63 1.554-0.742zM15.682 15.929c0.762 0.139 1.115 0.598 1.060 1.377 0.006 0.742-0.3 1.307-0.918 1.695-0.603 0.105-0.992-0.142-1.166-0.742-0.151-0.648-0.057-1.26 0.283-1.837 0.215-0.23 0.462-0.395 0.742-0.494zM15.117 21.227c0.233-0.017 0.445 0.042 0.636 0.177 0.358 0.406 0.759 0.759 1.201 1.060-0.562 0.753-1.222 0.847-1.978 0.283-0.397-0.551-0.349-1.057 0.141-1.519zM16.177 25.254c0.741 0.044 0.965 0.421 0.671 1.13-0.11 0.228-0.287 0.381-0.53 0.459-0.559 0.138-1.042 0.008-1.448-0.389-0.135-0.191-0.194-0.403-0.177-0.636 0.531-0.106 1.026-0.295 1.483-0.565z"></path>
            <path fill="#000" style="fill: var(--color1, #000)" opacity="0.891" d="M8.477 9.43c0.409-0.072 0.61 0.092 0.6 0.494-0.033 0.101-0.092 0.183-0.177 0.247-0.291 0.11-0.574 0.24-0.848 0.389-0.072 0.035-0.084 0.082-0.035 0.141 1.377 1.048 2.755 2.096 4.132 3.143 0.534 0.21 0.923 0.056 1.166-0.459 0.006-0.432 0.053-0.855 0.141-1.272 0.191-0.169 0.391-0.18 0.6-0.035 0.432 1.804-0.274 2.722-2.119 2.755-0.22 0.18-0.409 0.392-0.565 0.636-0.481 0.155-0.681-0.021-0.6-0.53 0.159-0.248 0.336-0.484 0.53-0.706-1.346-1.063-2.711-2.099-4.097-3.108-0.245 0.163-0.481 0.34-0.706 0.53-0.297 0.040-0.462-0.090-0.494-0.389-0.004-0.14 0.043-0.258 0.141-0.353 0.7-0.621 1.477-1.115 2.331-1.483z"></path>
            <path fill="#000" style="fill: var(--color1, #000)" opacity="0.886" d="M23.029 9.713c0.888 0.244 1.688 0.656 2.402 1.236 0.179 0.156 0.332 0.332 0.459 0.53 0.009 0.414-0.191 0.567-0.6 0.459-0.154-0.194-0.343-0.312-0.565-0.353-1.47 1.288-2.954 2.56-4.45 3.815 0.347 0.253 0.583 0.582 0.706 0.989-0.123 0.368-0.359 0.462-0.706 0.283-0.162-0.386-0.445-0.633-0.848-0.742-0.965 0.194-1.589-0.183-1.872-1.13-0.1-0.583 0.123-0.783 0.671-0.6 0.074 0.303 0.192 0.586 0.353 0.848 0.245 0.197 0.504 0.22 0.777 0.071 1.599-1.339 3.176-2.705 4.733-4.097-0.429-0.197-0.841-0.42-1.236-0.671-0.076-0.257-0.017-0.469 0.177-0.636z"></path>
            <path fill="#000" style="fill: var(--color1, #000)" opacity="0.89" d="M15.47 15.152c1.4 0.023 2.107 0.741 2.119 2.155-0.029 0.976-0.429 1.753-1.201 2.331-1.232 0.485-2.068 0.096-2.508-1.166-0.29-1.179 0.005-2.179 0.883-3.002 0.234-0.129 0.47-0.235 0.706-0.318zM15.682 15.929c-0.28 0.1-0.527 0.265-0.742 0.494-0.339 0.577-0.434 1.189-0.283 1.837 0.174 0.599 0.562 0.847 1.166 0.742 0.618-0.388 0.924-0.953 0.918-1.695 0.056-0.78-0.298-1.239-1.060-1.377z"></path>
            <path fill="#000" style="fill: var(--color1, #000)" opacity="0.893" d="M14.905 20.45c0.449-0.042 0.873 0.040 1.272 0.247 0.457 0.459 0.94 0.895 1.448 1.307 0.205 0.826-0.089 1.403-0.883 1.731-0.923 0.319-1.735 0.143-2.437-0.53-0.518-0.777-0.518-1.554 0-2.331 0.189-0.17 0.389-0.311 0.6-0.424zM15.117 21.227c-0.491 0.461-0.538 0.968-0.141 1.519 0.756 0.564 1.416 0.47 1.978-0.283-0.442-0.301-0.843-0.654-1.201-1.060-0.191-0.135-0.403-0.194-0.636-0.177z"></path>
            <path fill="#000" style="fill: var(--color1, #000)" opacity="0.894" d="M15.965 24.477c1.518-0.048 2.072 0.659 1.66 2.119-0.342 0.729-0.919 1.106-1.731 1.13-1.144-0.062-1.827-0.65-2.049-1.766 0.021-0.335 0.162-0.606 0.424-0.812 0.594-0.168 1.16-0.392 1.695-0.671zM16.177 25.254c-0.458 0.271-0.952 0.459-1.483 0.565-0.017 0.233 0.042 0.445 0.177 0.636 0.406 0.397 0.889 0.526 1.448 0.389 0.243-0.078 0.419-0.231 0.53-0.459 0.294-0.709 0.070-1.086-0.671-1.13z"></path>
        </symbol>
        <symbol id="icon-teyping" viewBox="0 0 32 32">
            <path fill="#000" style="fill: var(--color1, #000)" opacity="0.9" d="M19.344-0.031c-1.36 0.145-2.693 0.447-4 0.906-1.468 0.634-2.104 1.749-1.906 3.344 0.299 3.416 0.59 6.833 0.875 10.25 0.109 1.165 0.171 2.332 0.188 3.5-3.921 1.717-7.869 3.373-11.844 4.969-1.682 0.938-2.578 2.366-2.688 4.281 0 0.042 0 0.083 0 0.125 0.097 1.351 0.681 2.444 1.75 3.281 1.258 0.814 2.633 1.262 4.125 1.344 1.042 0 2.083 0 3.125 0 1.717-0.201 3.447-0.378 5.188-0.531 1.957-0.174 3.915-0.194 5.875-0.063 1.696 0.205 3.394 0.383 5.094 0.531 0.982-0.010 1.95-0.124 2.906-0.344 2.321-0.685 3.634-2.216 3.938-4.594 0-0.042 0-0.083 0-0.125-0.043-0.516-0.116-1.036-0.219-1.563-0.442-1.326-0.859-2.659-1.25-4-1.49-5.866-2.344-11.824-2.563-17.875-0.037-0.236-0.099-0.465-0.188-0.688-0.414-0.809-1.049-1.382-1.906-1.719-1.268-0.545-2.581-0.889-3.938-1.031-0.854 0-1.708 0-2.563 0zM20.469 2.844c1.598-0.001 3.118 0.332 4.563 1 0.231 3.449 0.554 6.886 0.969 10.313-2.923-0.262-5.85-0.512-8.781-0.75-0.253-3.254-0.535-6.504-0.844-9.75 1.328-0.49 2.693-0.761 4.094-0.813zM10.156 23.281c0.086-0.010 0.169 0.001 0.25 0.031 0.991 0.762 1.876 1.626 2.656 2.594 0.407 0.596 0.668 1.252 0.781 1.969-0.037 0.212-0.078 0.42-0.125 0.625-2.15 0.274-4.306 0.472-6.469 0.594-0.852-0.026-1.695-0.12-2.531-0.281-1.998-0.578-2.29-1.62-0.875-3.125 0.59-0.378 1.215-0.691 1.875-0.938 1.484-0.498 2.963-0.988 4.438-1.469z"></path>
        </symbol>
    </defs>
</svg>