<?xml version="1.0" encoding="UTF-8"?>
<!DOCTYPE svg PUBLIC "-//W3C//DTD SVG 1.1//EN" "http://www.w3.org/Graphics/SVG/1.1/DTD/svg11.dtd">
<svg xmlns="http://www.w3.org/2000/svg" version="1.1" width="510px" height="338px" style="shape-rendering:geometricPrecision; text-rendering:geometricPrecision; image-rendering:optimizeQuality; fill-rule:evenodd; clip-rule:evenodd" xmlns:xlink="http://www.w3.org/1999/xlink">
<g><path style="opacity:0.937" fill="#000000" d="M 509.5,260.5 C 509.5,284.167 509.5,307.833 509.5,331.5C 341.873,332.664 174.207,332.831 6.5,332C 3.64238,330.306 1.30904,328.139 -0.5,325.5C -0.5,319.167 -0.5,312.833 -0.5,306.5C 2.44111,298.384 7.77444,292.217 15.5,288C 9.00048,278.826 6.83381,268.66 9,257.5C 12.2604,241.907 21.7604,232.74 37.5,230C 48.8333,229.333 60.1667,229.333 71.5,230C 87.8525,232.187 97.5191,241.354 100.5,257.5C 104.131,257.84 107.464,257.006 110.5,255C 116.984,249.589 123.984,244.922 131.5,241C 134.433,240.107 137.433,239.607 140.5,239.5C 152.52,240.836 164.52,242.336 176.5,244C 181.48,246.851 182.813,251.018 180.5,256.5C 179.5,257.333 178.5,258.167 177.5,259C 164.151,258.165 150.818,257.165 137.5,256C 130.167,261 122.833,266 115.5,271C 110.675,272.895 105.675,273.728 100.5,273.5C 99.8948,279.046 97.8948,284.046 94.5,288.5C 104.478,295.123 109.145,304.456 108.5,316.5C 127.5,316.5 146.5,316.5 165.5,316.5C 165.5,311.167 165.5,305.833 165.5,300.5C 153.748,299.448 142.082,297.948 130.5,296C 126.221,290.967 126.554,286.3 131.5,282C 161.201,283.836 190.868,286.336 220.5,289.5C 220.5,281.5 220.5,273.5 220.5,265.5C 214.448,265.088 208.448,264.255 202.5,263C 195.803,257.692 196.136,252.692 203.5,248C 210.755,248.136 217.921,248.969 225,250.5C 226.786,249.223 227.952,247.556 228.5,245.5C 222.798,202.049 217.465,158.549 212.5,115C 212.645,105.216 215.978,96.7163 222.5,89.5C 209.398,78.9452 198.898,66.2786 191,51.5C 187.121,31.364 194.621,17.1974 213.5,9C 224.133,6.03571 234.133,7.36904 243.5,13C 255.17,24.1911 264.504,37.0244 271.5,51.5C 279.888,46.822 288.888,45.322 298.5,47C 320.276,53.7033 342.109,60.2033 364,66.5C 371.008,63.4122 377.842,59.9122 384.5,56C 386.871,53.3255 388.037,50.1589 388,46.5C 393.115,39.7912 399.281,38.7912 406.5,43.5C 410.374,41.1324 414.374,38.9657 418.5,37C 424.097,35.9091 429.43,36.5758 434.5,39C 441.168,43.4893 445.168,49.656 446.5,57.5C 445.495,65.0116 441.828,70.8449 435.5,75C 439.035,77.7071 440.202,81.2071 439,85.5C 421.524,108.813 405.024,132.813 389.5,157.5C 409.416,162.646 429.416,167.479 449.5,172C 455.925,173.427 460.092,177.26 462,183.5C 469.024,212.263 476.357,240.93 484,269.5C 487.131,265.367 490.631,261.534 494.5,258C 500.065,255.594 505.065,256.427 509.5,260.5 Z M 219.5,23.5 C 224.449,22.9589 229.116,23.7922 233.5,26C 241.848,34.6717 249.015,44.1717 255,54.5C 255.912,58.4525 255.245,62.1191 253,65.5C 247.887,69.7854 242.387,73.452 236.5,76.5C 230.287,75.799 225.454,72.799 222,67.5C 216.177,60.5209 210.844,53.1876 206,45.5C 204.889,40.3889 205.889,35.7223 209,31.5C 212.4,28.5862 215.9,25.9195 219.5,23.5 Z M 422.5,52.5 C 425.787,53.264 428.454,55.0973 430.5,58C 428.679,59.7433 426.679,61.2433 424.5,62.5C 422.016,60.517 419.683,58.3504 417.5,56C 419.584,55.3028 421.251,54.1361 422.5,52.5 Z M 284.5,62.5 C 288.514,62.3345 292.514,62.5012 296.5,63C 306.167,66 315.833,69 325.5,72C 326.428,72.3879 327.095,73.0546 327.5,74C 326.434,77.4611 325.101,80.7944 323.5,84C 318.272,82.8662 312.939,82.5329 307.5,83C 300.303,87.3047 298.803,93.138 303,100.5C 312.358,112.358 321.525,124.358 330.5,136.5C 316.816,151.017 303.316,165.683 290,180.5C 281,166.5 272,152.5 263,138.5C 257.667,134.5 252.333,134.5 247,138.5C 245.128,141.205 244.295,144.205 244.5,147.5C 245.296,152.157 245.463,156.824 245,161.5C 241.666,163.042 238.166,164.042 234.5,164.5C 232.542,148.005 230.542,131.505 228.5,115C 229.067,106.864 232.734,100.531 239.5,96C 244.656,91.5859 250.323,87.9193 256.5,85C 264.911,76.302 274.244,68.802 284.5,62.5 Z M 402.5,64.5 C 409.182,70.1818 415.182,76.5151 420.5,83.5C 418.476,85.6898 416.643,88.0232 415,90.5C 411,86.5 407,82.5 403,78.5C 402.501,73.8452 402.334,69.1785 402.5,64.5 Z M 385.5,73.5 C 386.621,75.0894 386.454,76.7561 385,78.5C 378.801,84.3644 372.968,90.5311 367.5,97C 365.833,97.6667 364.167,97.6667 362.5,97C 354.896,94.5197 347.229,92.3531 339.5,90.5C 340.185,85.7768 341.852,81.4434 344.5,77.5C 352.2,80.9262 360.2,82.7595 368.5,83C 374.333,79.9695 380,76.8029 385.5,73.5 Z M 393.5,92.5 C 397.631,96.1296 401.631,99.963 405.5,104C 363.542,167.414 321.709,230.914 280,294.5C 278.431,295.122 276.764,295.456 275,295.5C 262.169,294.067 249.336,292.734 236.5,291.5C 236.334,281.494 236.5,271.494 237,261.5C 289.372,205.297 341.539,148.963 393.5,92.5 Z M 326.5,103.5 C 335.729,105.391 344.729,108.057 353.5,111.5C 349.667,115.833 345.833,120.167 342,124.5C 336.824,117.47 331.657,110.47 326.5,103.5 Z M 262.5,168.5 C 267.934,176.516 273.267,184.683 278.5,193C 273.985,197.215 269.818,201.715 266,206.5C 264.612,193.848 263.446,181.181 262.5,168.5 Z M 379.5,172.5 C 401.86,177.372 424.194,182.372 446.5,187.5C 454.991,221.798 463.325,256.131 471.5,290.5C 464.833,290.5 458.167,290.5 451.5,290.5C 442.854,264.869 433.354,239.536 423,214.5C 420.742,212.57 418.242,211.07 415.5,210C 405.287,207.598 394.954,206.598 384.5,207C 379.167,211.667 379.167,216.333 384.5,221C 392.784,222.612 401.117,223.945 409.5,225C 416.092,240.858 422.425,256.858 428.5,273C 404.566,270.489 380.566,267.822 356.5,265C 355.692,264.692 355.025,264.192 354.5,263.5C 357.804,241.205 360.971,218.872 364,196.5C 369.39,188.617 374.557,180.617 379.5,172.5 Z M 243.5,178.5 C 244.833,178.5 246.167,178.5 247.5,178.5C 248.833,193.487 249.666,208.487 250,223.5C 247.294,225.871 244.961,228.537 243,231.5C 240.586,214.522 238.419,197.522 236.5,180.5C 239.152,180.59 241.485,179.924 243.5,178.5 Z M 342.5,228.5 C 343.043,228.56 343.376,228.893 343.5,229.5C 341.833,240.167 340.167,250.833 338.5,261.5C 332.841,262.411 327.174,262.245 321.5,261C 328.386,250.053 335.386,239.22 342.5,228.5 Z M 39.5,245.5 C 49.8387,245.334 60.172,245.5 70.5,246C 83.8585,250.552 88.3585,259.718 84,273.5C 81.598,280.297 76.7647,284.13 69.5,285C 59.5,285.667 49.5,285.667 39.5,285C 31.7804,283.614 26.9471,279.114 25,271.5C 22.3896,258.365 27.2229,249.699 39.5,245.5 Z M 310.5,276.5 C 351.907,280.508 393.24,285.175 434.5,290.5C 438.804,298.756 439.804,307.422 437.5,316.5C 399.165,316.667 360.832,316.5 322.5,316C 318.779,303.613 310.445,297.28 297.5,297C 302.23,290.364 306.563,283.531 310.5,276.5 Z M 495.5,280.5 C 496.655,287.655 496.822,294.988 496,302.5C 492.698,299.196 490.198,295.363 488.5,291C 490.648,287.357 492.981,283.857 495.5,280.5 Z M 24.5,301.5 C 44.1695,301.333 63.8362,301.5 83.5,302C 89.9244,304.678 92.9244,309.511 92.5,316.5C 66.4915,316.833 40.4915,316.5 14.5,315.5C 15.1926,308.827 18.526,304.16 24.5,301.5 Z M 181.5,301.5 C 220.745,305.992 260.079,310.158 299.5,314C 301.384,314.216 303.051,314.883 304.5,316C 263.501,316.5 222.501,316.667 181.5,316.5C 181.5,311.5 181.5,306.5 181.5,301.5 Z M 453.5,306.5 C 461.84,306.334 470.173,306.5 478.5,307C 481.167,310 483.833,313 486.5,316C 475.505,316.5 464.505,316.667 453.5,316.5C 453.5,313.167 453.5,309.833 453.5,306.5 Z"/></g>
</svg>
