<?xml version="1.0" encoding="UTF-8"?>
<!DOCTYPE svg PUBLIC "-//W3C//DTD SVG 1.1//EN" "http://www.w3.org/Graphics/SVG/1.1/DTD/svg11.dtd">
<svg xmlns="http://www.w3.org/2000/svg" version="1.1" width="512px" height="512px" style="shape-rendering:geometricPrecision; text-rendering:geometricPrecision; image-rendering:optimizeQuality; fill-rule:evenodd; clip-rule:evenodd" xmlns:xlink="http://www.w3.org/1999/xlink">
<g><path style="opacity:0.899" fill="#000000" d="M -0.5,246.5 C -0.5,245.833 -0.5,245.167 -0.5,244.5C 22.3382,197.152 47.5049,151.152 75,106.5C 79.6153,99.5505 84.6153,92.8838 90,86.5C 96.428,80.034 103.928,75.2007 112.5,72C 133.162,67.3339 153.828,62.6672 174.5,58C 185.837,54.586 195.671,48.7526 204,40.5C 204.5,28.1712 204.667,15.8378 204.5,3.5C 207.833,3.5 211.167,3.5 214.5,3.5C 214.817,18.2153 214.483,32.8819 213.5,47.5C 199.886,60.1413 183.886,68.308 165.5,72C 150.433,74.6778 135.433,77.6778 120.5,81C 114.44,82.8636 108.774,85.5302 103.5,89C 98.6461,93.8861 94.1461,99.0527 90,104.5C 60.5245,151.054 33.8578,199.388 10,249.5C 9.58605,249.957 9.08605,250.291 8.5,250.5C 5.59627,248.88 2.59627,247.547 -0.5,246.5 Z"/></g>
<g><path style="opacity:0.899" fill="#000000" d="M 296.5,3.5 C 299.833,3.5 303.167,3.5 306.5,3.5C 306.333,15.8378 306.5,28.1712 307,40.5C 311.57,45.7885 317.07,49.2885 323.5,51C 329.73,46.7179 336.396,43.2179 343.5,40.5C 369.495,48.0009 394.162,58.5009 417.5,72C 423.191,75.5134 428.524,79.5134 433.5,84C 458.085,88.7086 482.752,92.8753 507.5,96.5C 507.276,100.179 506.942,103.846 506.5,107.5C 480.794,103.659 455.127,99.4925 429.5,95C 415.748,83.2846 400.414,73.9513 383.5,67C 370.714,61.6074 357.714,56.7741 344.5,52.5C 343.062,52.7189 341.729,53.2189 340.5,54C 353.123,60.2629 365.79,66.4296 378.5,72.5C 376.921,75.9939 375.087,79.3272 373,82.5C 358.47,75.2353 343.804,68.2353 329,61.5C 326.589,62.6242 324.422,64.1242 322.5,66C 336.33,72.2178 349.997,78.7178 363.5,85.5C 362.26,88.3934 360.926,91.2267 359.5,94C 344.024,88.5194 328.857,82.0194 314,74.5C 312.291,77.4185 310.458,80.2518 308.5,83C 323.385,89.6091 338.385,95.9424 353.5,102C 354.022,102.561 354.355,103.228 354.5,104C 353.061,106.705 352.061,109.538 351.5,112.5C 336.394,106.906 321.394,100.906 306.5,94.5C 305.269,95.6507 305.269,96.8173 306.5,98C 328.562,108.115 350.396,118.615 372,129.5C 372.769,132.099 372.602,134.599 371.5,137C 363.014,139.955 354.348,142.288 345.5,144C 343.321,144.442 342.655,145.442 343.5,147C 357.127,146.74 370.794,146.407 384.5,146C 392.357,144.407 399.023,140.74 404.5,135C 406.034,134.077 407.701,133.577 409.5,133.5C 438.919,142.362 468.252,151.528 497.5,161C 501.604,161.914 505.27,163.581 508.5,166C 507.53,169.244 506.363,172.41 505,175.5C 473.953,165.207 442.787,155.207 411.5,145.5C 406.315,148.495 400.982,151.329 395.5,154C 391.943,155.408 388.276,156.408 384.5,157C 371.148,157.221 357.815,157.721 344.5,158.5C 332.825,156.151 329.325,149.484 334,138.5C 335.543,136.622 337.376,135.122 339.5,134C 343.211,133.156 346.877,132.156 350.5,131C 332.833,122.667 315.167,114.333 297.5,106C 296.107,104.829 295.273,103.329 295,101.5C 293.932,84.6343 299.766,70.6343 312.5,59.5C 306.871,55.7615 301.704,51.4282 297,46.5C 296.5,32.1705 296.333,17.8372 296.5,3.5 Z"/></g>
<g><path style="opacity:0.911" fill="#000000" d="M 239.5,32.5 C 249.997,35.4097 260.33,38.9097 270.5,43C 273.033,44.0333 274.699,45.8666 275.5,48.5C 261.029,87.7027 258.529,127.703 268,168.5C 275.333,197.167 282.667,225.833 290,254.5C 306.342,328.043 303.009,400.71 280,472.5C 278.818,474.357 277.151,475.357 275,475.5C 265.169,472.668 255.336,469.834 245.5,467C 242.936,465.938 241.269,464.104 240.5,461.5C 259.684,401.827 263.851,341.16 253,279.5C 244.411,242.401 235.411,205.401 226,168.5C 216.809,123.551 220.143,79.5507 236,36.5C 236.69,34.6498 237.856,33.3164 239.5,32.5 Z M 244.5,45.5 C 250.627,47.7085 256.627,50.2085 262.5,53C 260.257,59.2334 257.923,65.4001 255.5,71.5C 249.872,69.2352 244.206,67.0685 238.5,65C 240.576,58.5332 242.576,52.0332 244.5,45.5 Z M 236.5,76.5 C 242.515,78.561 248.515,80.7277 254.5,83C 252.479,91.3395 251.479,99.8395 251.5,108.5C 245.167,108.5 238.833,108.5 232.5,108.5C 232.69,97.6493 234.023,86.9826 236.5,76.5 Z M 232.5,118.5 C 238.5,118.5 244.5,118.5 250.5,118.5C 251.374,128.145 252.04,137.812 252.5,147.5C 246.602,148.646 240.768,149.979 235,151.5C 232.939,140.616 232.105,129.616 232.5,118.5 Z M 251.5,158.5 C 252.822,158.33 253.989,158.663 255,159.5C 256.623,169.158 258.79,178.658 261.5,188C 255.239,189.619 248.905,190.786 242.5,191.5C 239.858,181.941 238.024,172.274 237,162.5C 241.944,161.225 246.778,159.891 251.5,158.5 Z M 263.5,198.5 C 266.121,206.297 268.454,214.297 270.5,222.5C 265.119,225.945 259.619,229.278 254,232.5C 251.013,222.884 248.179,213.218 245.5,203.5C 251.545,201.566 257.545,199.9 263.5,198.5 Z M 272.5,234.5 C 276.486,245.604 279.486,257.104 281.5,269C 281.245,270.326 280.578,271.326 279.5,272C 274.221,273.487 268.888,274.653 263.5,275.5C 261.641,265.064 259.308,254.73 256.5,244.5C 261.861,241.156 267.195,237.822 272.5,234.5 Z M 281.5,282.5 C 282.5,282.5 283.5,282.5 284.5,282.5C 285.633,293.067 286.967,303.567 288.5,314C 281.842,314.5 275.175,314.666 268.5,314.5C 268.157,305.089 267.157,295.756 265.5,286.5C 271.094,285.768 276.427,284.435 281.5,282.5 Z M 269.5,324.5 C 275.833,324.5 282.167,324.5 288.5,324.5C 289.392,334.134 289.725,343.801 289.5,353.5C 283.19,352.81 276.857,352.476 270.5,352.5C 270.566,343.148 270.232,333.815 269.5,324.5 Z M 269.5,363.5 C 275.857,363.476 282.19,363.81 288.5,364.5C 288.194,372.868 287.527,381.201 286.5,389.5C 280.051,388.137 273.717,386.304 267.5,384C 268.789,377.273 269.456,370.44 269.5,363.5 Z M 266.5,395.5 C 272.37,397.567 278.37,399.233 284.5,400.5C 283.801,409.693 282.135,418.693 279.5,427.5C 273.998,425.221 268.331,423.554 262.5,422.5C 263.724,413.486 265.058,404.486 266.5,395.5 Z M 259.5,432.5 C 265.295,434.598 271.129,436.598 277,438.5C 275.984,445.905 274.317,453.239 272,460.5C 271.612,461.428 270.945,462.095 270,462.5C 264.578,461.026 259.245,459.359 254,457.5C 255.657,449.198 257.49,440.864 259.5,432.5 Z"/></g>
<g><path style="opacity:0.879" fill="#000000" d="M 511.5,244.5 C 511.5,245.167 511.5,245.833 511.5,246.5C 508.404,247.547 505.404,248.88 502.5,250.5C 489.722,226.447 477.056,202.28 464.5,178C 467.836,175.396 471.336,173.896 475,173.5C 487.196,197.228 499.363,220.894 511.5,244.5 Z"/></g>
<g><path style="opacity:0.888" fill="#000000" d="M 114.5,183.5 C 119.058,182.38 121.891,184.047 123,188.5C 135.736,227.515 144.903,267.348 150.5,308C 150.095,308.945 149.428,309.612 148.5,310C 145.518,310.498 142.518,310.665 139.5,310.5C 134.494,273.14 126.327,236.473 115,200.5C 80.5768,247.012 45.9101,293.345 11,339.5C 9.86682,341.211 8.36682,341.711 6.5,341C 4.0072,339.434 2.0072,337.434 0.5,335C 38.1506,284.181 76.1506,233.681 114.5,183.5 Z"/></g>
<g><path style="opacity:0.894" fill="#000000" d="M 390.5,183.5 C 395.242,182.621 398.742,184.288 401,188.5C 437.871,237.083 474.371,285.916 510.5,335C 508.993,337.434 506.993,339.434 504.5,341C 502.633,341.711 501.133,341.211 500,339.5C 465.09,293.345 430.423,247.012 396,200.5C 383.711,238.656 375.378,277.656 371,317.5C 369.678,356.664 371.678,395.664 377,434.5C 379.841,458.22 383.008,481.887 386.5,505.5C 382.846,505.942 379.179,506.276 375.5,506.5C 369.19,466.019 364.357,425.353 361,384.5C 356.332,338.899 359.665,293.899 371,249.5C 376.205,227.059 382.705,205.059 390.5,183.5 Z"/></g>
<g><path style="opacity:0.89" fill="#000000" d="M 178.5,315.5 C 194.286,315.258 207.786,320.591 219,331.5C 219.97,333.274 220.804,335.107 221.5,337C 215.025,355.427 208.358,373.76 201.5,392C 205.142,390.686 208.809,389.019 212.5,387C 224.85,385.685 230.017,391.185 228,403.5C 217.608,415.225 206.442,426.392 194.5,437C 186.302,441.399 177.635,444.399 168.5,446C 157.627,466.247 146.627,486.413 135.5,506.5C 134.635,507.583 133.635,507.749 132.5,507C 129.544,506.038 127.21,504.372 125.5,502C 137.319,479.361 149.652,457.028 162.5,435C 171.41,434.683 179.743,432.35 187.5,428C 195.5,421.333 202.833,414 209.5,406C 212,404.167 214.5,402.333 217,400.5C 217.563,399.275 217.23,398.275 216,397.5C 208.583,402.126 201.083,406.626 193.5,411C 186.495,412.324 183.995,409.49 186,402.5C 193.838,380.983 201.672,359.483 209.5,338C 208.667,337.167 207.833,336.333 207,335.5C 201.059,350.496 195.225,365.496 189.5,380.5C 185.553,379.962 181.887,378.629 178.5,376.5C 184.545,360.862 190.878,345.362 197.5,330C 194.09,328.095 190.59,327.595 187,328.5C 181.333,343.167 175.667,357.833 170,372.5C 169.586,372.957 169.086,373.291 168.5,373.5C 165.573,372.199 162.573,371.199 159.5,370.5C 164.793,355.784 169.959,341.118 175,326.5C 172.527,327.12 170.027,327.786 167.5,328.5C 161.883,344.357 155.883,360.023 149.5,375.5C 146.686,373.895 143.686,372.895 140.5,372.5C 144.267,358.699 148.934,345.199 154.5,332C 152.837,331.735 151.337,332.235 150,333.5C 138.448,355.156 129.448,377.823 123,401.5C 121.533,408.769 120.533,416.102 120,423.5C 99.9724,451.361 80.1391,479.361 60.5,507.5C 56.7661,507.053 53.4328,505.219 50.5,502C 69.2986,474.903 88.4652,448.069 108,421.5C 113.554,387.171 124.888,354.838 142,324.5C 153.754,319.353 165.92,316.353 178.5,315.5 Z"/></g>
</svg>
