<?xml version="1.0" encoding="UTF-8"?>
<!DOCTYPE svg PUBLIC "-//W3C//DTD SVG 1.1//EN" "http://www.w3.org/Graphics/SVG/1.1/DTD/svg11.dtd">
<svg xmlns="http://www.w3.org/2000/svg" version="1.1" width="512px" height="468px" style="shape-rendering:geometricPrecision; text-rendering:geometricPrecision; image-rendering:optimizeQuality; fill-rule:evenodd; clip-rule:evenodd" xmlns:xlink="http://www.w3.org/1999/xlink">
<g><path style="opacity:0.938" fill="#000000" d="M 511.5,291.5 C 511.5,316.167 511.5,340.833 511.5,365.5C 507.952,373.87 501.619,378.704 492.5,380C 334.5,380.667 176.5,380.667 18.5,380C 9.38143,378.704 3.04809,373.87 -0.5,365.5C -0.5,340.833 -0.5,316.167 -0.5,291.5C 2.00791,284.704 6.67458,279.871 13.5,277C 9.69073,260.146 16.0241,249.146 32.5,244C 42.8333,243.667 53.1667,243.333 63.5,243C 52.0419,216.727 57.7085,195.06 80.5,178C 104.618,166.158 125.785,169.992 144,189.5C 149.626,196.875 152.793,205.209 153.5,214.5C 160.2,212.661 167.033,211.661 174,211.5C 187.716,212.438 201.383,213.772 215,215.5C 224.323,208.848 233.656,202.181 243,195.5C 260,166.5 277,137.5 294,108.5C 299.381,101.397 305.881,95.5639 313.5,91C 294.962,72.5469 291.129,51.3803 302,27.5C 317.883,3.31513 339.716,-4.18487 367.5,5C 391.577,17.6549 401.411,37.4883 397,64.5C 394.168,74.9983 388.668,83.8317 380.5,91C 396.392,100.568 406.559,114.401 411,132.5C 412.465,166.459 412.965,200.459 412.5,234.5C 444.251,235.2 468.251,249.033 484.5,276C 497.324,275.063 506.324,280.23 511.5,291.5 Z M 339.5,17.5 C 356.16,15.5824 368.993,21.5824 378,35.5C 385.848,53.2588 382.348,68.4255 367.5,81C 347.616,91.9863 330.783,88.4863 317,70.5C 307.946,51.8692 311.446,36.0358 327.5,23C 331.481,20.8381 335.481,19.0048 339.5,17.5 Z M 328.5,101.5 C 339.836,104.013 351.17,104.013 362.5,101.5C 367.906,102.702 372.572,105.202 376.5,109C 370.333,129.5 364.167,150 358,170.5C 339.787,188.347 321.287,205.847 302.5,223C 300.866,223.494 299.199,223.66 297.5,223.5C 297.049,194.13 297.549,164.797 299,135.5C 303.515,119.422 313.348,108.088 328.5,101.5 Z M 389.5,122.5 C 394.994,131.281 397.328,140.948 396.5,151.5C 395.856,164.612 393.023,177.279 388,189.5C 366.453,210.348 344.62,230.848 322.5,251C 311.825,252.326 307.992,247.826 311,237.5C 331.636,218.532 351.969,199.199 372,179.5C 377.685,160.419 383.518,141.419 389.5,122.5 Z M 280.5,162.5 C 281.66,174.66 281.827,186.993 281,199.5C 277.415,205.002 274.081,210.669 271,216.5C 269.924,218.577 268.257,219.91 266,220.5C 257.768,219.571 249.601,218.405 241.5,217C 246.424,213.287 251.258,209.454 256,205.5C 264.696,191.437 272.863,177.104 280.5,162.5 Z M 99.5,187.5 C 123.177,186.682 136.011,198.016 138,221.5C 124.771,239.37 106.938,246.536 84.5,243C 70.2051,227.686 69.8718,212.02 83.5,196C 88.2607,191.926 93.594,189.093 99.5,187.5 Z M 395.5,204.5 C 396.494,213.652 396.827,222.985 396.5,232.5C 387.462,232.118 378.462,231.284 369.5,230C 378.435,221.714 387.102,213.214 395.5,204.5 Z M 167.5,227.5 C 194.219,229.232 220.885,231.565 247.5,234.5C 247.5,248.5 247.5,262.5 247.5,276.5C 196.832,276.333 146.166,276.5 95.5,277C 88.0125,281.606 87.6792,286.606 94.5,292C 227.167,292.333 359.833,292.667 492.5,293C 494.487,294.319 495.654,296.152 496,298.5C 496.667,318.5 496.667,338.5 496,358.5C 495.602,361.232 494.102,363.065 491.5,364C 333.42,364.997 175.42,364.664 17.5,363C 16.1068,361.829 15.2735,360.329 15,358.5C 14.0344,337.436 14.3678,316.436 16,295.5C 16.8333,294.667 17.6667,293.833 18.5,293C 36.1667,292.667 53.8333,292.333 71.5,292C 75.2771,289.089 76.4437,285.256 75,280.5C 73.786,278.951 72.286,277.785 70.5,277C 57.5,276.667 44.5,276.333 31.5,276C 27.301,270.719 27.6343,265.719 32.5,261C 59.1147,259.962 85.7814,258.962 112.5,258C 127.209,254.146 139.542,246.479 149.5,235C 155.24,231.623 161.24,229.123 167.5,227.5 Z M 263.5,236.5 C 273.5,237.167 283.5,237.833 293.5,238.5C 293.295,260.126 303.962,269.626 325.5,267C 327.949,266.275 330.283,265.275 332.5,264C 339.685,257.314 347.018,250.814 354.5,244.5C 378.129,247.13 401.795,249.63 425.5,252C 441.308,255.235 454.308,263.068 464.5,275.5C 397.503,276.5 330.503,276.833 263.5,276.5C 263.5,263.167 263.5,249.833 263.5,236.5 Z"/></g>
<g><path style="opacity:0.93" fill="#000000" d="M 41.5,394.5 C 45.5164,393.9 49.0164,394.9 52,397.5C 53.2586,414.122 53.9253,430.789 54,447.5C 58.1179,450.592 61.4512,449.925 64,445.5C 64.3333,429.833 64.6667,414.167 65,398.5C 66.5286,395.484 69.0286,394.151 72.5,394.5C 75.3247,394.119 77.4913,395.119 79,397.5C 80.6217,413.766 80.955,430.1 80,446.5C 76.5685,461.809 67.0685,467.975 51.5,465C 45,462.5 40.5,458 38,451.5C 37.3333,433.5 37.3333,415.5 38,397.5C 39.1451,396.364 40.3117,395.364 41.5,394.5 Z"/></g>
<g><path style="opacity:0.929" fill="#000000" d="M 434.5,394.5 C 437.187,394.336 439.854,394.503 442.5,395C 444.333,395.5 445.5,396.667 446,398.5C 446.333,414.167 446.667,429.833 447,445.5C 449.549,449.925 452.882,450.592 457,447.5C 457.059,430.78 457.725,414.114 459,397.5C 462.795,394.197 466.962,393.697 471.5,396C 472.126,396.75 472.626,397.584 473,398.5C 473.667,416.167 473.667,433.833 473,451.5C 465.442,466.072 454.275,469.572 439.5,462C 435.896,459.292 433.396,455.792 432,451.5C 430.407,434.545 430.073,417.545 431,400.5C 431.564,398.113 432.73,396.113 434.5,394.5 Z"/></g>
</svg>
