<?xml version="1.0" encoding="UTF-8"?>
<!DOCTYPE svg PUBLIC "-//W3C//DTD SVG 1.1//EN" "http://www.w3.org/Graphics/SVG/1.1/DTD/svg11.dtd">
<svg xmlns="http://www.w3.org/2000/svg" version="1.1" width="499px" height="502px" style="shape-rendering:geometricPrecision; text-rendering:geometricPrecision; image-rendering:optimizeQuality; fill-rule:evenodd; clip-rule:evenodd" xmlns:xlink="http://www.w3.org/1999/xlink">
<g><path style="opacity:0.977" fill="#000000" d="M 272.5,2.5 C 290.836,2.33339 309.17,2.50006 327.5,3C 335.756,5.75475 341.089,11.2547 343.5,19.5C 351.745,21.9106 357.245,27.244 360,35.5C 360.667,54.8333 360.667,74.1667 360,93.5C 357.111,107.116 350.278,118.283 339.5,127C 353.5,134.667 367.5,142.333 381.5,150C 403.271,166.26 412.438,188.093 409,215.5C 411.469,213.348 414.302,211.848 417.5,211C 426.5,210.333 435.5,210.333 444.5,211C 445.416,211.374 446.25,211.874 447,212.5C 448.149,225.075 448.649,237.742 448.5,250.5C 448.333,262.5 448.167,274.5 448,286.5C 447.626,287.416 447.126,288.25 446.5,289C 430.914,290.137 415.248,290.971 399.5,291.5C 394.095,302.894 385.095,307.894 372.5,306.5C 359.526,307.69 350.36,302.357 345,290.5C 344.5,301.161 344.333,311.828 344.5,322.5C 380.835,322.667 417.168,322.5 453.5,322C 457.619,318.607 462.286,316.274 467.5,315C 476.602,314.058 485.602,314.391 494.5,316C 495.126,316.75 495.626,317.584 496,318.5C 496.667,350.5 496.667,382.5 496,414.5C 495.5,416.333 494.333,417.5 492.5,418C 477.837,418.5 463.17,418.667 448.5,418.5C 448.667,443.836 448.5,469.169 448,494.5C 447.5,496.333 446.333,497.5 444.5,498C 433.833,498.667 423.167,498.667 412.5,498C 410.667,497.5 409.5,496.333 409,494.5C 406.034,469.504 403.201,444.504 400.5,419.5C 389.854,418.501 379.187,418.168 368.5,418.5C 368.334,427.506 368.5,436.506 369,445.5C 383.061,456.683 387.727,471.017 383,488.5C 382.25,489.126 381.416,489.626 380.5,490C 329.833,490.667 279.167,490.667 228.5,490C 227.584,489.626 226.75,489.126 226,488.5C 221.273,471.017 225.939,456.683 240,445.5C 240.5,436.506 240.666,427.506 240.5,418.5C 192.5,418.5 144.5,418.5 96.5,418.5C 93.9956,443.879 91.1622,469.212 88,494.5C 87.5,496.333 86.3333,497.5 84.5,498C 73.8333,498.667 63.1667,498.667 52.5,498C 50.6667,497.5 49.5,496.333 49,494.5C 48.5,469.169 48.3334,443.836 48.5,418.5C 33.8295,418.667 19.1629,418.5 4.5,418C 2.66667,417.5 1.5,416.333 1,414.5C 0.333333,401.167 0.333333,387.833 1,374.5C 1.5,372.667 2.66667,371.5 4.5,371C 9.5,370.667 14.5,370.333 19.5,370C 6.52191,352.537 4.68857,334.037 14,314.5C 21.5604,302.137 32.3938,294.303 46.5,291C 58.5,290.333 70.5,290.333 82.5,291C 97.6301,294.402 108.963,302.902 116.5,316.5C 124.037,302.902 135.37,294.402 150.5,291C 180.498,290.5 210.498,290.333 240.5,290.5C 240.5,282.5 240.5,274.5 240.5,266.5C 232.826,266.666 225.159,266.5 217.5,266C 209.333,263.167 203.833,257.667 201,249.5C 200.333,229.5 200.333,209.5 201,189.5C 204.712,172.807 213.545,159.64 227.5,150C 241.5,142.333 255.5,134.667 269.5,127C 258.737,118.32 251.904,107.153 249,93.5C 248.333,70.8333 248.333,48.1667 249,25.5C 252.787,13.5443 260.621,5.87762 272.5,2.5 Z M 279.5,18.5 C 293.171,18.3334 306.837,18.5001 320.5,19C 322.246,19.4709 323.913,20.1376 325.5,21C 327.378,24.6739 328.878,28.5073 330,32.5C 333.778,34.0728 337.611,35.5728 341.5,37C 342.126,37.7504 342.626,38.5838 343,39.5C 344.572,47.7554 344.905,56.0887 344,64.5C 335.019,60.3834 329.186,53.5501 326.5,44C 322.5,42 318.5,42 314.5,44C 307.545,55.2795 297.545,62.2795 284.5,65C 277.872,66.0523 271.206,66.5523 264.5,66.5C 264.106,54.1137 264.606,41.7804 266,29.5C 268.616,23.3723 273.116,19.7057 279.5,18.5 Z M 317.5,66.5 C 321.94,69.7635 326.273,73.2635 330.5,77C 334.474,79.6021 338.807,81.1021 343.5,81.5C 343.419,99.0787 335.419,111.579 319.5,119C 296.31,125.982 279.144,118.816 268,97.5C 266.105,92.6751 265.272,87.6751 265.5,82.5C 280.787,84.3426 295.12,81.5093 308.5,74C 311.94,71.9579 314.94,69.4579 317.5,66.5 Z M 291.5,137.5 C 300.243,138.456 308.91,138.789 317.5,138.5C 311.465,145.943 304.132,147.443 295.5,143C 293.536,141.549 292.203,139.716 291.5,137.5 Z M 273.5,143.5 C 284.671,161.723 300.337,166.89 320.5,159C 326.572,155.049 331.405,149.882 335,143.5C 348.418,151.46 361.918,159.293 375.5,167C 385.965,176.097 391.465,187.597 392,201.5C 392.5,209.827 392.666,218.16 392.5,226.5C 384.5,226.5 376.5,226.5 368.5,226.5C 368.5,213.167 368.5,199.833 368.5,186.5C 363.167,186.5 357.833,186.5 352.5,186.5C 352.5,199.833 352.5,213.167 352.5,226.5C 338.496,226.667 324.496,226.5 310.5,226C 306.622,218.455 300.622,213.455 292.5,211C 280.505,210.5 268.505,210.333 256.5,210.5C 256.5,202.5 256.5,194.5 256.5,186.5C 251.167,186.5 245.833,186.5 240.5,186.5C 240.5,194.5 240.5,202.5 240.5,210.5C 237.833,210.5 235.167,210.5 232.5,210.5C 232.5,215.833 232.5,221.167 232.5,226.5C 243.167,226.5 253.833,226.5 264.5,226.5C 264.5,234.5 264.5,242.5 264.5,250.5C 251.163,250.667 237.829,250.5 224.5,250C 220,249.5 217.5,247 217,242.5C 216.333,228.833 216.333,215.167 217,201.5C 217.692,184.608 225.192,171.775 239.5,163C 251.059,156.726 262.392,150.226 273.5,143.5 Z M 280.5,226.5 C 292.593,227.068 297.093,233.068 294,244.5C 290.497,248.672 285.997,250.672 280.5,250.5C 280.5,242.5 280.5,234.5 280.5,226.5 Z M 424.5,226.5 C 427.167,226.5 429.833,226.5 432.5,226.5C 432.5,242.5 432.5,258.5 432.5,274.5C 427.167,274.5 421.833,274.5 416.5,274.5C 416.333,261.163 416.5,247.829 417,234.5C 417.68,229.989 420.18,227.323 424.5,226.5 Z M 312.5,242.5 C 341.833,242.5 371.167,242.5 400.5,242.5C 400.667,253.172 400.5,263.839 400,274.5C 394.843,262.336 385.676,257.003 372.5,258.5C 359.835,256.997 350.835,261.997 345.5,273.5C 340.154,273.967 334.988,274.967 330,276.5C 328.359,295.743 328.025,315.077 329,334.5C 329.5,336.333 330.667,337.5 332.5,338C 371.165,338.5 409.832,338.667 448.5,338.5C 448.5,349.167 448.5,359.833 448.5,370.5C 410.494,370.833 372.494,370.5 334.5,369.5C 340.211,351.092 334.211,338.259 316.5,331C 309.842,330.5 303.175,330.334 296.5,330.5C 296.333,308.497 296.5,286.497 297,264.5C 305.864,259.773 311.03,252.44 312.5,242.5 Z M 256.5,266.5 C 264.5,266.5 272.5,266.5 280.5,266.5C 280.5,274.5 280.5,282.5 280.5,290.5C 272.5,290.5 264.5,290.5 256.5,290.5C 256.5,282.5 256.5,274.5 256.5,266.5 Z M 368.5,274.5 C 373.08,274.113 377.414,274.947 381.5,277C 385.453,285.904 382.453,290.404 372.5,290.5C 362.547,290.404 359.547,285.904 363.5,277C 365.315,276.243 366.981,275.41 368.5,274.5 Z M 56.5,306.5 C 64.214,306.295 71.8806,306.795 79.5,308C 97.8221,313.793 105.655,326.293 103,345.5C 102.197,348.244 101.197,350.911 100,353.5C 92.8333,346.333 85.6667,339.167 78.5,332C 71.2806,330.571 63.9472,330.071 56.5,330.5C 56.5,322.5 56.5,314.5 56.5,306.5 Z M 160.5,306.5 C 200.5,306.5 240.5,306.5 280.5,306.5C 280.5,314.5 280.5,322.5 280.5,330.5C 240.5,330.5 200.5,330.5 160.5,330.5C 160.5,335.833 160.5,341.167 160.5,346.5C 203.167,346.5 245.833,346.5 288.5,346.5C 288.5,354.5 288.5,362.5 288.5,370.5C 245.832,370.667 203.165,370.5 160.5,370C 137.809,367.126 127.642,354.293 130,331.5C 134.514,316.172 144.681,307.839 160.5,306.5 Z M 38.5,312.5 C 40.0533,322.881 41.2199,333.547 42,344.5C 42.7504,345.126 43.5838,345.626 44.5,346C 52.5,346.333 60.5,346.667 68.5,347C 74.8333,353.333 81.1667,359.667 87.5,366C 73.7507,371.15 59.7507,371.817 45.5,368C 25.6671,357.532 20.5005,342.032 30,321.5C 32.3622,317.973 35.1955,314.973 38.5,312.5 Z M 475.5,330.5 C 477.167,330.5 478.833,330.5 480.5,330.5C 480.5,343.833 480.5,357.167 480.5,370.5C 475.167,370.5 469.833,370.5 464.5,370.5C 464.168,358.482 464.501,346.482 465.5,334.5C 468.688,332.554 472.021,331.221 475.5,330.5 Z M 304.5,346.5 C 316.593,347.068 321.093,353.068 318,364.5C 314.497,368.672 309.997,370.672 304.5,370.5C 304.5,362.5 304.5,354.5 304.5,346.5 Z M 115.5,360.5 C 118.487,363.246 121.153,366.413 123.5,370C 118.833,370.667 114.167,370.667 109.5,370C 112.146,367.198 114.146,364.032 115.5,360.5 Z M 16.5,386.5 C 171.167,386.5 325.833,386.5 480.5,386.5C 480.5,391.833 480.5,397.167 480.5,402.5C 325.833,402.5 171.167,402.5 16.5,402.5C 16.5,397.167 16.5,391.833 16.5,386.5 Z M 64.5,418.5 C 69.544,418.173 74.544,418.506 79.5,419.5C 77.0717,439.782 74.905,460.115 73,480.5C 70.544,482.321 67.7107,482.988 64.5,482.5C 64.5,461.167 64.5,439.833 64.5,418.5 Z M 256.5,418.5 C 269.833,418.5 283.167,418.5 296.5,418.5C 296.5,426.5 296.5,434.5 296.5,442.5C 283.167,442.5 269.833,442.5 256.5,442.5C 256.5,434.5 256.5,426.5 256.5,418.5 Z M 312.5,418.5 C 325.833,418.5 339.167,418.5 352.5,418.5C 352.5,426.5 352.5,434.5 352.5,442.5C 339.167,442.5 325.833,442.5 312.5,442.5C 312.5,434.5 312.5,426.5 312.5,418.5 Z M 417.5,419.5 C 422.305,418.513 427.305,418.179 432.5,418.5C 432.5,439.833 432.5,461.167 432.5,482.5C 429.833,482.5 427.167,482.5 424.5,482.5C 422.353,461.345 420.019,440.345 417.5,419.5 Z M 251.5,458.5 C 266.5,458.5 281.5,458.5 296.5,458.5C 296.5,463.833 296.5,469.167 296.5,474.5C 278.167,474.5 259.833,474.5 241.5,474.5C 242.298,467.567 245.632,462.234 251.5,458.5 Z M 312.5,458.5 C 327.504,458.333 342.504,458.5 357.5,459C 363.493,462.495 366.827,467.662 367.5,474.5C 349.167,474.5 330.833,474.5 312.5,474.5C 312.5,469.167 312.5,463.833 312.5,458.5 Z"/></g>
</svg>
