<?xml version="1.0" encoding="UTF-8"?>
<!DOCTYPE svg PUBLIC "-//W3C//DTD SVG 1.1//EN" "http://www.w3.org/Graphics/SVG/1.1/DTD/svg11.dtd">
<svg xmlns="http://www.w3.org/2000/svg" version="1.1" width="448px" height="453px" style="shape-rendering:geometricPrecision; text-rendering:geometricPrecision; image-rendering:optimizeQuality; fill-rule:evenodd; clip-rule:evenodd" xmlns:xlink="http://www.w3.org/1999/xlink">
<g><path style="opacity:0.896" fill="#000000" d="M 172.5,2.5 C 183.513,1.60782 194.18,3.10782 204.5,7C 207.287,9.16724 208.12,12.0006 207,15.5C 205.701,16.9797 204.034,17.6464 202,17.5C 179.058,9.23428 159.724,14.2343 144,32.5C 137.443,42.9498 135.11,54.2831 137,66.5C 138.781,71.8208 140.115,77.1542 141,82.5C 137.383,87.8148 133.717,87.8148 130,82.5C 120.306,57.3017 124.806,35.135 143.5,16C 152.24,9.29407 161.906,4.79407 172.5,2.5 Z"/></g>
<g><path style="opacity:0.893" fill="#000000" d="M 222.5,18.5 C 255.79,15.5307 283.29,26.5307 305,51.5C 306.73,57.589 304.563,60.4223 298.5,60C 291.794,53.6256 284.794,47.6256 277.5,42C 244.538,23.4002 213.205,25.7336 183.5,49C 167.161,63.5124 158.161,81.6791 156.5,103.5C 156.886,120.104 163.552,133.604 176.5,144C 181.422,147.378 186.255,150.878 191,154.5C 192.324,161.505 189.49,164.005 182.5,162C 148.274,142 137.774,113.167 151,75.5C 165.291,44.3611 189.124,25.3611 222.5,18.5 Z"/></g>
<g><path style="opacity:0.921" fill="#000000" d="M 31.5,41.5 C 56.5022,41.3334 81.5022,41.5 106.5,42C 110.01,45.048 110.343,48.3813 107.5,52C 81.4648,52.0558 55.4648,52.7225 29.5,54C 22.0908,56.4084 16.9241,61.2417 14,68.5C 12.3539,113.788 12.0206,159.121 13,204.5C 14.8097,212.983 19.643,219.149 27.5,223C 40.1565,224.105 52.8232,224.939 65.5,225.5C 68.1217,228.703 68.1217,231.87 65.5,235C 60.1771,235.499 54.8437,235.666 49.5,235.5C 49.6667,306.501 49.5,377.501 49,448.5C 44.8821,451.592 41.5488,450.925 39,446.5C 38.5,376.167 38.3333,305.834 38.5,235.5C 18.9901,235.669 6.8234,226.335 2,207.5C 1.33333,161.5 1.33333,115.5 2,69.5C 6.20399,54.127 16.0373,44.7936 31.5,41.5 Z"/></g>
<g><path style="opacity:0.921" fill="#000000" d="M 334.5,41.5 C 360.835,41.3334 387.169,41.5 413.5,42C 429.139,44.9728 438.972,54.1395 443,69.5C 443.667,115.5 443.667,161.5 443,207.5C 438.177,226.335 426.01,235.669 406.5,235.5C 406.667,305.834 406.5,376.167 406,446.5C 403.451,450.925 400.118,451.592 396,448.5C 395.5,377.501 395.333,306.501 395.5,235.5C 390.156,235.666 384.823,235.499 379.5,235C 376.878,231.87 376.878,228.703 379.5,225.5C 392.177,224.939 404.843,224.105 417.5,223C 425.357,219.149 430.19,212.983 432,204.5C 432.979,159.121 432.646,113.788 431,68.5C 428.076,61.2417 422.909,56.4084 415.5,54C 388.202,52.7195 360.868,52.0529 333.5,52C 330.615,48.0562 330.948,44.5562 334.5,41.5 Z"/></g>
<g><path style="opacity:0.892" fill="#000000" d="M 286.5,59.5 C 289.195,59.933 291.362,61.2663 293,63.5C 299.717,72.4199 302.384,82.4199 301,93.5C 299.498,100.005 297.998,106.505 296.5,113C 296.631,115.253 297.131,117.419 298,119.5C 300.333,123.5 302.667,127.5 305,131.5C 306.976,138.544 304.81,143.877 298.5,147.5C 299.737,181.116 284.07,194.616 251.5,188C 243.743,184.622 236.076,180.955 228.5,177C 225.844,169.322 228.51,166.322 236.5,168C 241.659,170.412 246.659,173.079 251.5,176C 259.002,178.365 266.669,179.032 274.5,178C 281.113,174.958 284.946,169.791 286,162.5C 286.378,155.811 286.378,149.144 286,142.5C 288.383,139.727 291.217,137.561 294.5,136C 291.232,131.067 288.399,125.9 286,120.5C 285.333,115.833 285.333,111.167 286,106.5C 287.744,100.69 289.244,94.857 290.5,89C 290.003,83.8939 288.503,79.0605 286,74.5C 280.63,78.3511 274.963,81.6844 269,84.5C 267.551,98.895 261.717,111.062 251.5,121C 241.977,124.676 233.144,129.509 225,135.5C 223.964,137.87 223.464,140.37 223.5,143C 224.145,147.168 224.312,151.335 224,155.5C 220.667,159.5 217.333,159.5 214,155.5C 209.148,143.424 211.315,132.924 220.5,124C 228.393,118.886 236.726,114.553 245.5,111C 249.551,107.279 252.384,102.779 254,97.5C 255.669,91.1502 257.336,84.8168 259,78.5C 264.747,74.0405 270.914,70.2072 277.5,67C 280.129,63.8543 283.129,61.3543 286.5,59.5 Z"/></g>
<g><path style="opacity:0.896" fill="#000000" d="M 63.5,89.5 C 82.5718,91.3448 101.572,93.8448 120.5,97C 124.708,97.1734 128.541,98.34 132,100.5C 133.872,105.692 132.205,108.692 127,109.5C 107.646,106.592 88.3123,103.592 69,100.5C 51.6446,102.854 42.1446,112.687 40.5,130C 40.3232,134.37 41.1565,138.536 43,142.5C 69.6667,177.833 96.3333,213.167 123,248.5C 136.33,268.806 143.664,291.139 145,315.5C 146.256,347.821 146.756,380.154 146.5,412.5C 197.855,401.884 249.189,401.884 300.5,412.5C 301.436,382.17 302.27,351.837 303,321.5C 303.261,294.433 310.928,269.767 326,247.5C 352.333,214.167 378.667,180.833 405,147.5C 414.368,128.606 409.535,114.44 390.5,105C 387.731,104.137 384.898,103.637 382,103.5C 360.959,105.571 339.959,107.904 319,110.5C 313.977,109.392 312.31,106.392 314,101.5C 314.903,100.299 316.069,99.4652 317.5,99C 341.439,95.939 365.439,93.939 389.5,93C 405.479,96.3132 415.646,105.813 420,121.5C 422.947,134.767 420.28,146.767 412,157.5C 386.667,189.5 361.333,221.5 336,253.5C 321.662,274.185 314.328,297.185 314,322.5C 313.513,363.536 313.18,404.536 313,445.5C 310.451,449.925 307.118,450.592 303,447.5C 301.565,439.611 301.065,431.611 301.5,423.5C 249.847,412.874 198.18,412.874 146.5,423.5C 146.666,431.174 146.5,438.841 146,446.5C 145.242,448.91 143.575,449.91 141,449.5C 138.966,449.646 137.299,448.98 136,447.5C 135.651,404.828 134.984,362.161 134,319.5C 133.003,295.844 126.003,274.177 113,254.5C 87.6667,221.167 62.3333,187.833 37,154.5C 24.8567,135.197 26.3567,117.03 41.5,100C 48.0077,94.5778 55.341,91.0778 63.5,89.5 Z M 219.5,225.5 C 230.288,227.463 235.288,233.963 234.5,245C 234.583,255.507 230.25,263.507 221.5,269C 212.959,270.484 207.459,266.984 205,258.5C 202.861,249.332 204.194,240.666 209,232.5C 212.043,229.246 215.543,226.913 219.5,225.5 Z M 211.5,300.5 C 214.794,300.259 217.794,301.092 220.5,303C 225.573,308.744 231.24,313.744 237.5,318C 229.54,328.654 220.207,329.987 209.5,322C 203.886,314.197 204.553,307.031 211.5,300.5 Z M 226.5,357.5 C 236.993,358.125 240.16,363.458 236,373.5C 234.437,376.728 231.937,378.895 228.5,380C 220.583,381.948 213.75,380.115 208,374.5C 206.092,371.794 205.259,368.794 205.5,365.5C 213.021,363.996 220.021,361.33 226.5,357.5 Z"/></g>
<g><path style="opacity:0.891" fill="#000000" d="M 117.5,133.5 C 123.297,132.474 126.13,134.808 126,140.5C 125.535,141.931 124.701,143.097 123.5,144C 119.381,145.559 115.381,147.393 111.5,149.5C 110.479,150.002 110.312,150.668 111,151.5C 130.5,166.333 150,181.167 169.5,196C 177.062,198.967 182.562,196.8 186,189.5C 186.088,183.39 186.755,177.39 188,171.5C 190.707,169.114 193.54,168.948 196.5,171C 202.616,196.539 192.616,209.539 166.5,210C 163.383,212.542 160.717,215.542 158.5,219C 151.691,221.196 148.857,218.696 150,211.5C 152.257,207.988 154.757,204.654 157.5,201.5C 138.451,186.449 119.117,171.783 99.5,157.5C 96.0252,159.808 92.6919,162.308 89.5,165C 85.3001,165.565 82.9667,163.731 82.5,159.5C 82.4371,157.519 83.1038,155.852 84.5,154.5C 94.413,145.715 105.413,138.715 117.5,133.5 Z"/></g>
<g><path style="opacity:0.886" fill="#000000" d="M 323.5,137.5 C 336.069,140.951 347.402,146.784 357.5,155C 360.04,157.205 362.207,159.705 364,162.5C 364.13,168.359 361.297,170.526 355.5,169C 353.315,166.256 350.649,164.59 347.5,164C 326.686,182.237 305.686,200.237 284.5,218C 289.415,221.575 292.748,226.242 294.5,232C 292.752,237.206 289.418,238.539 284.5,236C 282.207,230.54 278.207,227.04 272.5,225.5C 258.838,228.25 250.005,222.916 246,209.5C 244.58,201.246 247.746,198.413 255.5,201C 256.552,205.29 258.218,209.29 260.5,213C 263.967,215.786 267.634,216.12 271.5,214C 294.129,195.04 316.462,175.707 338.5,156C 332.427,153.215 326.594,150.048 321,146.5C 319.93,142.858 320.764,139.858 323.5,137.5 Z"/></g>
<g><path style="opacity:0.89" fill="#000000" d="M 216.5,214.5 C 236.324,214.825 246.324,224.991 246.5,245C 246.093,258.817 240.426,269.817 229.5,278C 212.06,284.866 200.226,279.366 194,261.5C 189.898,244.814 194.065,230.647 206.5,219C 209.815,217.17 213.149,215.67 216.5,214.5 Z M 219.5,225.5 C 215.543,226.913 212.043,229.246 209,232.5C 204.194,240.666 202.861,249.332 205,258.5C 207.459,266.984 212.959,270.484 221.5,269C 230.25,263.507 234.583,255.507 234.5,245C 235.288,233.963 230.288,227.463 219.5,225.5 Z"/></g>
<g><path style="opacity:0.893" fill="#000000" d="M 208.5,289.5 C 214.853,288.901 220.853,290.068 226.5,293C 232.968,299.499 239.801,305.665 247,311.5C 249.905,323.19 245.738,331.356 234.5,336C 221.434,340.521 209.934,338.021 200,328.5C 192.667,317.5 192.667,306.5 200,295.5C 202.671,293.098 205.505,291.098 208.5,289.5 Z M 211.5,300.5 C 204.553,307.031 203.886,314.197 209.5,322C 220.207,329.987 229.54,328.654 237.5,318C 231.24,313.744 225.573,308.744 220.5,303C 217.794,301.092 214.794,300.259 211.5,300.5 Z"/></g>
<g><path style="opacity:0.894" fill="#000000" d="M 223.5,346.5 C 244.994,345.825 252.827,355.825 247,376.5C 242.161,386.825 233.994,392.159 222.5,392.5C 206.299,391.626 196.632,383.292 193.5,367.5C 193.79,362.752 195.79,358.919 199.5,356C 207.915,353.616 215.915,350.45 223.5,346.5 Z M 226.5,357.5 C 220.021,361.33 213.021,363.996 205.5,365.5C 205.259,368.794 206.092,371.794 208,374.5C 213.75,380.115 220.583,381.948 228.5,380C 231.937,378.895 234.437,376.728 236,373.5C 240.16,363.458 236.993,358.125 226.5,357.5 Z"/></g>
</svg>
