<?xml version="1.0" encoding="UTF-8"?>
<!DOCTYPE svg PUBLIC "-//W3C//DTD SVG 1.1//EN" "http://www.w3.org/Graphics/SVG/1.1/DTD/svg11.dtd">
<svg xmlns="http://www.w3.org/2000/svg" version="1.1" width="512px" height="512px" style="shape-rendering:geometricPrecision; text-rendering:geometricPrecision; image-rendering:optimizeQuality; fill-rule:evenodd; clip-rule:evenodd" xmlns:xlink="http://www.w3.org/1999/xlink">
<g><path style="opacity:0.988" fill="#000000" d="M 309.5,-0.5 C 323.167,-0.5 336.833,-0.5 350.5,-0.5C 372.206,1.78179 393.206,7.28179 413.5,16C 427.211,21.384 437.377,30.5506 444,43.5C 445.408,47.0569 446.408,50.7235 447,54.5C 450.497,151.309 464.163,246.643 488,340.5C 494.263,361.955 500.929,383.289 508,404.5C 509.639,412.917 510.805,421.25 511.5,429.5C 511.5,430.167 511.5,430.833 511.5,431.5C 506.643,469.544 485.643,494.044 448.5,505C 433.205,508.513 417.705,510.346 402,510.5C 374.798,508.121 347.631,505.287 320.5,502C 289.144,499.889 257.81,500.223 226.5,503C 198.644,505.452 170.978,508.285 143.5,511.5C 126.833,511.5 110.167,511.5 93.5,511.5C 69.6286,510.196 47.6286,503.03 27.5,490C 10.3892,476.61 1.05584,459.11 -0.5,437.5C -0.5,436.833 -0.5,436.167 -0.5,435.5C 1.2491,404.848 15.5824,382.015 42.5,367C 106.09,341.471 169.257,314.971 232,287.5C 231.744,268.811 230.744,250.145 229,231.5C 224.444,176.824 219.777,122.157 215,67.5C 211.84,41.9794 222.007,24.146 245.5,14C 266.408,6.65523 287.742,1.8219 309.5,-0.5 Z M 327.5,45.5 C 353.061,45.478 377.395,50.8113 400.5,61.5C 404.198,116.677 409.365,171.677 416,226.5C 369.227,222.311 322.394,218.311 275.5,214.5C 271.448,162.433 266.948,110.433 262,58.5C 283.255,50.6555 305.088,46.3222 327.5,45.5 Z M 162.5,372.5 C 163.873,372.343 165.207,372.51 166.5,373C 182.35,385.184 196.517,399.018 209,414.5C 215.515,424.036 219.682,434.536 221.5,446C 220.913,449.386 220.246,452.72 219.5,456C 185.105,460.39 150.605,463.556 116,465.5C 102.375,465.086 88.8751,463.586 75.5,461C 43.5246,451.747 38.8579,435.08 61.5,411C 70.9423,404.946 80.9423,399.946 91.5,396C 115.238,388.031 138.905,380.198 162.5,372.5 Z"/></g>
</svg>
